<svg width="37" height="38" viewBox="0 0 37 38" fill="none" xmlns="http://www.w3.org/2000/svg">
<path fill-rule="evenodd" clip-rule="evenodd" d="M13.6606 29.1908C12.9437 29.1914 12.2439 28.973 11.6552 28.5649C11.0665 28.157 10.6172 27.5789 10.3679 26.9085C10.1185 26.2382 10.0809 25.5077 10.2603 24.8155C10.4396 24.1233 10.8273 23.5024 11.371 23.0365H9.1979C8.79176 23.7161 8.54696 24.4794 8.4822 25.268C8.41743 26.0565 8.53445 26.8493 8.82428 27.5857C9.11413 28.3223 9.56908 28.9828 10.1543 29.5169C10.7396 30.0508 11.4396 30.4442 12.2008 30.6669C12.962 30.8895 13.7642 30.9355 14.546 30.8012C15.3277 30.6669 16.0682 30.356 16.7109 29.8922C17.3536 29.4285 17.8814 28.8242 18.2539 28.1256C18.6263 27.4271 18.8335 26.6529 18.8596 25.8621V11.2703C18.3094 11.1541 17.7409 11.1541 17.1909 11.2703L17.1719 25.8621C17.1261 26.7602 16.7362 27.6062 16.0826 28.2257C15.4292 28.8453 14.5621 29.1907 13.6606 29.1908Z" fill="#C5D9DF"/>
<path fill-rule="evenodd" clip-rule="evenodd" d="M5.5498 17.057H12.0889C12.5741 12.0254 17.4443 9.3547 21.6937 12.1806C16.3187 6.4325 7.02454 9.87725 5.5498 17.057Z" fill="#C5D9DF"/>
<path fill-rule="evenodd" clip-rule="evenodd" d="M18.8615 9.31541V10.0122C18.3377 9.72732 17.7758 9.51891 17.1926 9.39338V8.79285C17.7695 8.89303 18.3307 9.06872 18.8615 9.31541Z" fill="#C5D9DF"/>
<path fill-rule="evenodd" clip-rule="evenodd" d="M17.1926 4.99976H18.8615V6.52855C18.3052 6.49282 17.7467 6.50573 17.1926 6.56717V4.99976Z" fill="#C5D9DF"/>
<path fill-rule="evenodd" clip-rule="evenodd" d="M10.4395 9.23811C18.0651 3.52912 31.0654 7.34148 32.5595 19.7273H25.613C25.4772 9.83814 16.6292 6.70308 10.4395 9.23811Z" fill="#1F4A82"/>
<path d="M11.4111 22.3986H10.2859L9.8009 21.4116H7.27804L6.79309 22.3986H5.64819L7.93774 17.9862H9.12134L11.4111 22.3986ZM9.27671 20.4053C9.09556 20.0929 8.93353 19.7697 8.79151 19.4377C8.68426 19.228 8.59973 19.0074 8.53934 18.7797C8.3284 19.3399 8.07544 19.8832 7.78261 20.4053H9.27671ZM16.883 21.0633C16.8837 21.244 16.8439 21.4225 16.7666 21.5858C16.7018 21.7426 16.61 21.8867 16.4951 22.0116C16.3802 22.1299 16.2413 22.2223 16.0875 22.2824C15.9306 22.3596 15.7579 22.3993 15.583 22.3986H11.6047V17.9862H15.5824C15.751 17.9855 15.9175 18.0254 16.0674 18.1023C16.224 18.1762 16.3681 18.2741 16.4943 18.3926C16.6175 18.511 16.7105 18.657 16.7658 18.8185C16.8432 18.9749 16.883 19.1472 16.8823 19.3216L16.883 21.0633ZM15.8934 19.3216C15.8982 19.2779 15.8918 19.2336 15.875 19.1931C15.858 19.1525 15.831 19.1169 15.7964 19.0894C15.7716 19.0571 15.7391 19.0312 15.7018 19.0144C15.6647 18.9974 15.6238 18.99 15.583 18.9927H12.5752V21.4116H15.5827C15.6638 21.4083 15.7403 21.3735 15.7962 21.3149C15.8297 21.2824 15.8557 21.2431 15.8725 21.1997C15.8892 21.1563 15.8964 21.1097 15.8932 21.0633L15.8934 19.3216ZM23.3056 18.9734H20.0457V19.6894H23.189V20.6764H20.0457V22.3987H19.0752V17.9862H23.3052L23.3056 18.9734Z" fill="#1F4A82"/>
<path d="M18.4923 22.3986H17.5027V17.9862H18.4923V22.3986Z" fill="#1F4A82"/>
<path d="M1.70754 18.4114L0 17.5791L0.0193587 17.3277L1.8433 16.7477L1.82394 17.0187L1.28066 17.1735L1.20297 17.9089L1.7269 18.1586L1.70754 18.4114ZM1.0285 17.8307L1.08682 17.2307L0.582004 17.3665C0.455774 17.4103 0.325865 17.4427 0.193836 17.4634C0.307041 17.5001 0.417303 17.5454 0.523679 17.5988L1.0285 17.8307ZM1.82394 16.7277L1.65021 16.6891L0.893482 15.7019C0.874123 15.7986 0.874123 15.8752 0.854764 15.9534L0.757723 16.4566L0.583989 16.4373L0.776087 15.411L0.931206 15.4302L1.59089 16.2625L1.70729 16.4173C1.72665 16.3204 1.72665 16.244 1.74601 16.1462L1.86242 15.5656L2.0565 15.6044L1.82394 16.7277ZM1.70754 14.1344C1.87322 14.1704 2.02291 14.2586 2.13443 14.3859C2.18526 14.4545 2.21883 14.5343 2.23235 14.6185C2.24587 14.7027 2.23893 14.7889 2.21211 14.87C2.19949 14.9534 2.16628 15.0324 2.11547 15.0999C2.06467 15.1675 1.99783 15.2214 1.92099 15.2568C1.76037 15.3225 1.58161 15.3293 1.41642 15.276H1.3777L1.59115 14.3471C1.48893 14.3141 1.37796 14.321 1.28066 14.3664C1.22956 14.3887 1.18497 14.4236 1.15103 14.4677C1.1171 14.5119 1.09492 14.5639 1.08657 14.6189C1.06845 14.6935 1.07567 14.772 1.10712 14.842C1.13856 14.9121 1.19244 14.9698 1.2603 15.0061L1.18262 15.2189C1.06397 15.162 0.970592 15.0633 0.920432 14.9419C0.870272 14.8204 0.866861 14.6847 0.910854 14.5609C0.923455 14.4772 0.956758 14.398 1.00776 14.3303C1.05875 14.2626 1.12584 14.2087 1.20297 14.1733C1.27971 14.1321 1.36424 14.1073 1.45114 14.1006C1.53804 14.0939 1.62538 14.1055 1.70754 14.1344ZM1.76587 14.3859L1.59213 15.0828C1.67517 15.1084 1.76488 15.1019 1.8433 15.0645C1.89525 15.0496 1.94152 15.0195 1.97613 14.9782C2.01073 14.9367 2.03207 14.8859 2.03738 14.8322C2.0508 14.7869 2.0543 14.7392 2.04762 14.6925C2.04094 14.6457 2.02424 14.601 1.99867 14.5612C1.94329 14.478 1.86106 14.4161 1.76561 14.3859H1.76587ZM2.40619 14.057L1.20297 13.6312L1.2613 13.4579L1.43504 13.5161C1.38633 13.458 1.34705 13.3927 1.31863 13.3225C1.30905 13.3012 1.3041 13.2782 1.3041 13.2548C1.3041 13.2315 1.30905 13.2084 1.31863 13.1871C1.34545 13.1115 1.39238 13.0446 1.4544 12.9935L1.62812 13.129C1.57945 13.1599 1.54468 13.2084 1.53109 13.2643C1.52149 13.2856 1.51655 13.3087 1.51655 13.3321C1.51655 13.3554 1.52149 13.3785 1.53109 13.3998C1.55004 13.4426 1.57633 13.4819 1.60876 13.5159L1.84156 13.6319L2.4819 13.8448L2.40619 14.057ZM2.71668 13.07L2.639 13.2636L1.00889 12.6057L1.08657 12.3928L1.66858 12.6443C1.63222 12.5833 1.61145 12.5143 1.60806 12.4435C1.60469 12.3726 1.61883 12.302 1.64922 12.2378C1.66935 12.1695 1.70996 12.1091 1.76561 12.0645C1.81785 12.0081 1.8852 11.9678 1.95971 11.9484C2.0362 11.9324 2.1144 11.9259 2.19251 11.9291C2.28006 11.9277 2.36662 11.9477 2.44466 11.9873C2.53533 12.0144 2.61972 12.0592 2.69298 12.1189C2.76625 12.1787 2.82693 12.2523 2.87155 12.3356C2.90331 12.4016 2.9214 12.4734 2.92472 12.5465C2.92805 12.6197 2.91654 12.6927 2.8909 12.7614C2.86502 12.826 2.82296 12.883 2.76874 12.9268C2.71452 12.9707 2.64995 13 2.58117 13.0119L2.71668 13.07ZM2.11507 12.8366C2.21693 12.8878 2.33163 12.908 2.44491 12.8948C2.50361 12.8903 2.55996 12.8699 2.60785 12.8358C2.65576 12.8017 2.6934 12.7551 2.71668 12.7012C2.73248 12.6572 2.73892 12.6103 2.73559 12.5636C2.73225 12.517 2.71922 12.4715 2.69732 12.4302C2.62403 12.3191 2.51425 12.237 2.38683 12.198C2.2661 12.1397 2.12857 12.126 1.99867 12.1593C1.95361 12.168 1.91176 12.1887 1.87756 12.2192C1.84339 12.2497 1.81815 12.2889 1.80459 12.3326C1.78403 12.3756 1.77499 12.4232 1.77839 12.4707C1.78179 12.5182 1.79748 12.564 1.82394 12.6037C1.89367 12.7102 1.99566 12.7918 2.11507 12.8366ZM3.39573 11.1722C3.43044 11.2583 3.4372 11.3531 3.41509 11.4432C3.41625 11.5271 3.38886 11.609 3.3374 11.6754C3.32105 11.7304 3.29119 11.7804 3.25054 11.821C3.20989 11.8615 3.15972 11.8913 3.1046 11.9076C3.05819 11.9284 3.00738 11.9375 2.95663 11.9341C2.90586 11.9307 2.85671 11.915 2.81347 11.8883C2.75592 11.8667 2.70784 11.8256 2.67772 11.7722C2.65836 11.714 2.639 11.6754 2.61939 11.6175C2.61632 11.5591 2.62286 11.5005 2.63875 11.4442C2.64763 11.377 2.66733 11.3116 2.69708 11.2506C2.74252 11.1303 2.78138 11.0076 2.81347 10.883C2.80342 10.872 2.78962 10.8651 2.77475 10.8637C2.745 10.8405 2.71001 10.8248 2.67282 10.8181C2.63563 10.8113 2.59736 10.8138 2.56131 10.8251C2.48541 10.8616 2.42416 10.9227 2.38757 10.9984C2.35428 11.0717 2.33453 11.1503 2.32926 11.2306C2.35414 11.2965 2.39398 11.3558 2.44566 11.4039L2.32926 11.5771C2.26222 11.5351 2.20844 11.475 2.17413 11.4039C2.139 11.3315 2.13209 11.2488 2.15478 11.1717C2.16057 11.0739 2.19424 10.9799 2.25182 10.9006C2.28729 10.8136 2.34005 10.7346 2.40693 10.6684C2.46526 10.6298 2.50398 10.5909 2.56206 10.5909C2.61195 10.5716 2.66728 10.5716 2.71718 10.5909C2.78386 10.6191 2.84869 10.6514 2.91126 10.6877L3.16342 10.8231C3.27411 10.8869 3.39093 10.9395 3.51212 10.9801C3.56035 11.0042 3.61331 11.0174 3.66725 11.0187L3.5702 11.2123C3.51035 11.2086 3.45145 11.1955 3.39573 11.1734V11.1722ZM2.96884 10.9593C2.94973 11.0786 2.91717 11.1955 2.8718 11.3076C2.83309 11.4044 2.83309 11.4623 2.81347 11.5011C2.81347 11.5398 2.83283 11.5786 2.83283 11.6172C2.85219 11.6365 2.89116 11.6754 2.91052 11.6754C2.93576 11.6924 2.96475 11.703 2.995 11.7064C3.02526 11.7097 3.05588 11.7057 3.08424 11.6947C3.13878 11.6599 3.18509 11.6137 3.22001 11.5593C3.25745 11.4875 3.27743 11.408 3.27833 11.3271C3.28028 11.2912 3.27434 11.2552 3.26092 11.2218C3.2475 11.1883 3.22693 11.1582 3.20065 11.1335C3.15958 11.0703 3.09841 11.0226 3.02691 10.9981L2.96884 10.9593ZM4.20979 11.0368L4.01571 10.9593C4.05443 10.9207 4.07403 10.8818 4.09339 10.8625C4.1187 10.8291 4.1323 10.7883 4.1321 10.7464C4.1372 10.7129 4.13035 10.6786 4.11274 10.6496C4.08435 10.6018 4.05188 10.5565 4.01571 10.5142C3.99635 10.4949 3.99635 10.4756 3.97698 10.456L2.61865 10.2432L2.73505 10.0496L3.51114 10.185C3.60817 10.2043 3.70522 10.2236 3.82161 10.2432C3.7411 10.1822 3.66929 10.1106 3.60817 10.0303L3.08424 9.41143L3.20065 9.23814L4.09413 10.3026C4.16317 10.383 4.22795 10.4669 4.28821 10.5541C4.3227 10.6131 4.34269 10.6794 4.34654 10.7476C4.35228 10.808 4.33872 10.8687 4.30782 10.9209C4.2814 10.9645 4.24861 11.004 4.21053 11.038L4.20979 11.0368ZM4.53962 8.75322L4.67539 8.59851C4.7292 8.63937 4.77285 8.69205 4.80299 8.75244C4.83311 8.81284 4.8489 8.87933 4.84913 8.9468C4.86315 9.07104 4.82837 9.19587 4.75208 9.29508C4.70949 9.36253 4.65272 9.41996 4.58571 9.46337C4.51868 9.5068 4.443 9.53519 4.36392 9.54658C4.17934 9.55781 3.99785 9.49549 3.85934 9.3733C3.75697 9.30999 3.67066 9.22392 3.60719 9.1218C3.55084 9.02901 3.53011 8.919 3.54886 8.81213C3.54736 8.75838 3.55691 8.70487 3.57692 8.65493C3.59695 8.605 3.627 8.55968 3.66526 8.52178C3.69627 8.46804 3.73817 8.42135 3.78831 8.3847C3.83843 8.34804 3.89568 8.32222 3.95639 8.3089C4.011 8.29182 4.0686 8.28644 4.12543 8.29309C4.18228 8.29975 4.23707 8.31829 4.28623 8.34751L4.18919 8.52078C4.12092 8.49602 4.04737 8.48937 3.97575 8.50147C3.91264 8.5221 3.85812 8.56291 3.82063 8.61757C3.78542 8.65229 3.75978 8.69547 3.74618 8.74294C3.73256 8.79041 3.73146 8.84059 3.74294 8.88862C3.79042 9.01678 3.87909 9.12566 3.99511 9.19829C4.08963 9.28667 4.21475 9.33519 4.3443 9.3337C4.39428 9.33363 4.44345 9.32123 4.48745 9.2976C4.53144 9.27398 4.5689 9.23987 4.59647 9.19829C4.62327 9.17051 4.64265 9.13645 4.65283 9.09926C4.66303 9.06207 4.6637 9.02293 4.65479 8.98541C4.65196 8.94129 4.6404 8.89816 4.62075 8.85852C4.60111 8.81888 4.5738 8.78351 4.54038 8.75446L4.53962 8.75322ZM5.54852 7.9403C5.55793 8.03285 5.54464 8.1263 5.50981 8.2126C5.49072 8.29263 5.45053 8.36613 5.3934 8.42548C5.36182 8.47684 5.31944 8.52075 5.26917 8.55418C5.2189 8.5876 5.16196 8.60974 5.10227 8.61905C5.00498 8.63016 4.90723 8.60229 4.83051 8.54158C4.7919 8.50126 4.75922 8.45567 4.73346 8.40617C4.71149 8.35081 4.69842 8.29232 4.69475 8.23289C4.71411 8.17473 4.71411 8.1168 4.75308 8.07819C4.77434 8.01491 4.80724 7.95614 4.85011 7.90491C4.91598 7.79293 4.97403 7.67656 5.02385 7.55662L4.98514 7.518C4.93121 7.4708 4.86272 7.44346 4.79105 7.44053C4.70595 7.46958 4.63159 7.52348 4.5776 7.59523C4.52192 7.65312 4.4877 7.72822 4.48056 7.80813C4.48351 7.8796 4.51092 7.94792 4.55824 8.0017L4.40313 8.1564C4.35064 8.09641 4.3169 8.0224 4.30608 7.94352C4.2834 7.86642 4.29031 7.78365 4.32544 7.71133C4.35104 7.61834 4.39746 7.53234 4.46121 7.45984C4.51558 7.38578 4.58104 7.3205 4.65529 7.26626C4.70854 7.2351 4.7677 7.21529 4.82901 7.20809C4.88295 7.20938 4.93593 7.22258 4.98414 7.2467C5.04882 7.28247 5.10744 7.32816 5.15788 7.38211L5.37132 7.55538C5.52644 7.67148 5.64307 7.74896 5.6818 7.78758C5.74012 7.80689 5.77884 7.82619 5.83691 7.84574L5.70116 8.01903C5.64707 8.00077 5.59596 7.97466 5.54951 7.94154L5.54852 7.9403ZM5.16234 7.65117C5.12752 7.768 5.07523 7.87891 5.00722 7.98016C4.96819 8.03393 4.93561 8.09208 4.91017 8.15344V8.26953C4.92543 8.30415 4.95316 8.33179 4.98786 8.34701C5.02454 8.38218 5.07279 8.40285 5.12363 8.40518C5.18972 8.38036 5.24918 8.34062 5.29735 8.28909C5.3454 8.22635 5.37858 8.15357 5.3944 8.07621C5.40731 8.0048 5.40062 7.93125 5.37504 7.86331C5.33384 7.80223 5.28116 7.74969 5.21992 7.70861L5.16234 7.65117ZM6.01611 7.65117L5.08465 6.76004L5.22042 6.60533L5.35617 6.74073C5.33461 6.66124 5.33591 6.5773 5.35991 6.49851C5.38392 6.41973 5.42968 6.34926 5.49193 6.29517C5.5401 6.24362 5.59956 6.2039 5.66567 6.17907C5.71805 6.14825 5.77885 6.13474 5.8394 6.14045C5.90063 6.15815 5.95909 6.18422 6.01314 6.21794C6.03249 6.23725 6.09081 6.2761 6.16824 6.35333L6.73313 6.89569L6.57801 7.05041L6.01512 6.50953C5.96967 6.46315 5.91734 6.424 5.86 6.39344C5.81697 6.37618 5.77039 6.36956 5.72423 6.37413C5.67461 6.39981 5.6289 6.4324 5.58848 6.47091C5.5575 6.50114 5.53293 6.53728 5.51627 6.57716C5.4996 6.61706 5.49115 6.65989 5.49143 6.70312C5.49933 6.76067 5.51879 6.81606 5.54864 6.86595C5.57849 6.91584 5.61812 6.95921 5.66517 6.99347L6.16974 7.49671L6.01611 7.65117ZM8.1699 4.4968C8.32723 4.67313 8.4166 4.89948 8.42205 5.13545C8.42161 5.25507 8.39106 5.37267 8.33321 5.47746C8.27537 5.58226 8.19208 5.67089 8.09096 5.73524C8.00614 5.81305 7.90286 5.86807 7.79085 5.89514C7.67884 5.9222 7.56177 5.92041 7.45064 5.88995C7.21984 5.83859 7.01808 5.69977 6.888 5.50279L6.81032 5.40601L7.89688 4.55448C7.80022 4.43247 7.66217 4.34988 7.50872 4.32229C7.43497 4.31316 7.3601 4.32058 7.2896 4.344C7.21909 4.36743 7.15472 4.40627 7.1012 4.4577C7.00565 4.5164 6.93634 4.60947 6.90757 4.71765C6.87879 4.82585 6.89275 4.94093 6.94657 5.03916L6.73313 5.13595C6.66286 4.99132 6.64907 4.82578 6.69442 4.67156C6.74584 4.51917 6.84019 4.38476 6.96617 4.28442C7.08805 4.18832 7.23777 4.13406 7.39307 4.1297C7.54003 4.10796 7.69008 4.1352 7.81995 4.20719C7.95427 4.27983 8.07286 4.37826 8.1689 4.4968H8.1699ZM8.03413 4.70969L7.14065 5.42582C7.23902 5.56251 7.38386 5.65885 7.54818 5.69686C7.6235 5.70645 7.69996 5.70114 7.77321 5.68122C7.84646 5.6613 7.91506 5.62717 7.97507 5.58078C8.03811 5.53697 8.09017 5.47924 8.12718 5.41209C8.16421 5.34494 8.18519 5.27018 8.18851 5.19362C8.19761 5.01881 8.14236 4.84671 8.03315 4.70969H8.03413ZM8.94598 5.05797L8.2647 3.97474L8.43844 3.87796L8.53548 4.03266C8.5389 3.954 8.55191 3.87603 8.57419 3.80048C8.61778 3.73484 8.67762 3.68156 8.74793 3.64578C8.81452 3.59445 8.89657 3.56712 8.98073 3.56829C9.05307 3.56795 9.12269 3.59574 9.17481 3.64578C9.16885 3.5649 9.18566 3.48398 9.22338 3.41216C9.2611 3.34033 9.31822 3.28046 9.38825 3.23931C9.43271 3.2078 9.48349 3.18627 9.5371 3.17623C9.5907 3.16618 9.64585 3.16786 9.69874 3.18114C9.80777 3.21596 9.89846 3.29253 9.9509 3.39402L10.4197 4.14803L10.246 4.2448L9.81912 3.56755C9.7771 3.51845 9.73823 3.46678 9.70271 3.41283C9.66605 3.39708 9.62611 3.39046 9.58632 3.39353C9.56223 3.38947 9.53754 3.39082 9.51405 3.3975C9.49055 3.40418 9.46887 3.41602 9.45055 3.43214C9.41339 3.45037 9.38146 3.47767 9.35772 3.51152C9.33397 3.54536 9.31921 3.58465 9.31479 3.62571C9.30652 3.67684 9.30916 3.72914 9.32254 3.77918C9.33593 3.82921 9.35976 3.87586 9.39248 3.91608L9.78064 4.53493L9.60692 4.65102L9.15818 3.95494C9.11605 3.88807 9.05582 3.83445 8.98446 3.80023C8.95602 3.7896 8.92545 3.7858 8.89527 3.78916C8.86508 3.7925 8.83611 3.80293 8.81072 3.81954C8.75714 3.84959 8.71591 3.89754 8.69433 3.95494C8.67731 3.98012 8.66667 4.00904 8.6633 4.03921C8.65993 4.06939 8.66393 4.09993 8.67497 4.12822C8.68382 4.22285 8.7249 4.3116 8.79136 4.37971L9.14056 4.94088L8.94598 5.05797ZM11.3909 3.49032C11.3619 3.57608 11.3157 3.65507 11.2551 3.72251C11.1994 3.78434 11.1338 3.83661 11.0611 3.87722C11.0117 3.90607 10.957 3.92441 10.9002 3.93104C10.8434 3.93769 10.7859 3.93251 10.7312 3.91584C10.6822 3.90541 10.636 3.88453 10.5958 3.85463C10.5556 3.82471 10.5224 3.78648 10.4984 3.74255C10.4764 3.6872 10.4634 3.62872 10.4597 3.56929C10.461 3.51549 10.4742 3.46265 10.4984 3.41457C10.5323 3.36545 10.5713 3.32005 10.6148 3.27916C10.659 3.23138 10.7116 3.19204 10.7699 3.16307C10.8873 3.09778 10.9921 3.01219 11.0794 2.91033C11.0684 2.9003 11.0615 2.88655 11.0601 2.87171C11.0305 2.80831 10.9834 2.75463 10.9243 2.71701C10.8301 2.7118 10.7363 2.73189 10.6525 2.77517C10.5822 2.81096 10.5224 2.86425 10.4788 2.92989C10.4586 2.99942 10.4586 3.07324 10.4788 3.14277L10.2654 3.22026C10.2459 3.13754 10.2459 3.05146 10.2654 2.96875C10.2732 2.89464 10.3076 2.82586 10.3624 2.77517C10.4334 2.70048 10.5193 2.64145 10.6146 2.60191C10.6928 2.55614 10.7779 2.52344 10.8667 2.50511C10.9253 2.49963 10.9845 2.50621 11.0405 2.52442C11.0947 2.55124 11.1414 2.59116 11.1762 2.64052C11.2181 2.69241 11.2509 2.75098 11.2733 2.81379L11.409 3.0653C11.461 3.17795 11.519 3.28776 11.5827 3.39427L11.6992 3.51037L11.5051 3.60715C11.4574 3.57853 11.4178 3.53833 11.3899 3.49032H11.3909ZM11.1581 3.06454C11.0998 3.12272 11.003 3.19995 10.8863 3.29675C10.8269 3.33223 10.7744 3.37809 10.7312 3.43214C10.707 3.45868 10.6933 3.49307 10.6925 3.52893C10.6852 3.54507 10.6832 3.56306 10.6867 3.58041C10.6902 3.59775 10.6989 3.61358 10.7119 3.62571C10.7178 3.65241 10.7325 3.67639 10.7535 3.69389C10.7746 3.7114 10.8008 3.72147 10.8283 3.72251C10.8601 3.73333 10.8939 3.73721 10.9274 3.73388C10.9609 3.73055 10.9933 3.72009 11.0223 3.7032C11.0926 3.66742 11.1525 3.61412 11.1961 3.54848C11.233 3.49053 11.2532 3.42355 11.2544 3.35491C11.2509 3.28053 11.231 3.20783 11.1961 3.14203L11.1581 3.06454ZM11.9535 3.41283L11.487 2.21326L11.681 2.13579L11.7394 2.30906C11.7591 2.23045 11.7976 2.15778 11.8516 2.09725C11.9057 2.03674 11.9736 1.99016 12.0496 1.96151C12.1177 1.936 12.1914 1.92933 12.263 1.94221C12.3232 1.94147 12.3826 1.95468 12.4368 1.98082C12.5339 2.07136 12.6072 2.18435 12.6502 2.3098L12.922 3.02593L12.7279 3.12272L12.4378 2.38729C12.4192 2.3265 12.3931 2.2683 12.3601 2.21401C12.3221 2.17713 12.2754 2.15047 12.2243 2.13653C12.1719 2.13451 12.1195 2.14103 12.0692 2.15584C11.9879 2.19189 11.92 2.25251 11.8751 2.32911C11.8421 2.44581 11.8557 2.57075 11.9131 2.67764L12.1652 3.3356L11.9535 3.41283ZM14.146 1.98082C14.1773 2.06161 14.1917 2.14791 14.1884 2.23444C14.185 2.32096 14.1641 2.40591 14.1267 2.48407C14.0961 2.56248 14.0462 2.63193 13.9816 2.68606C13.917 2.74016 13.8398 2.7772 13.7571 2.79374C13.6761 2.82134 13.5895 2.8287 13.5049 2.81518C13.4203 2.80169 13.3403 2.76771 13.2719 2.71627C13.1407 2.6162 13.051 2.47155 13.0198 2.3098C13.0198 2.29049 13.0004 2.27119 13.0004 2.25164L13.9319 2.00014C13.9025 1.8892 13.8335 1.7928 13.7378 1.72908C13.6966 1.69843 13.6482 1.67879 13.5972 1.67204C13.5463 1.66528 13.4945 1.67162 13.4466 1.69047C13.37 1.70493 13.3008 1.74574 13.2511 1.8058C13.2015 1.86584 13.1745 1.94137 13.1749 2.01919L12.9614 2.05781C12.9512 1.93049 12.9894 1.80396 13.0685 1.70353C13.1477 1.60308 13.2618 1.5361 13.3883 1.51595C13.4678 1.48537 13.5536 1.47464 13.6382 1.48469C13.7228 1.49474 13.8037 1.52528 13.8738 1.57363C13.9463 1.61739 14.0082 1.67658 14.0551 1.74697C14.102 1.81736 14.1327 1.89721 14.1451 1.98082H14.146ZM13.952 2.17441L13.2729 2.36798C13.2969 2.45039 13.344 2.52426 13.4087 2.58086C13.4505 2.61026 13.4988 2.62913 13.5495 2.63586C13.6002 2.64259 13.6518 2.63696 13.6998 2.61948C13.7941 2.59873 13.8771 2.54354 13.9326 2.46476C13.9683 2.37214 13.9748 2.27082 13.9512 2.17441H13.952ZM14.9805 2.27119L15.0582 2.44447C15.0126 2.47755 14.9591 2.49767 14.903 2.50263C14.8397 2.52211 14.7722 2.52211 14.709 2.50263C14.6876 2.49893 14.6674 2.48989 14.6504 2.47635C14.6335 2.4628 14.6202 2.4452 14.6119 2.42516C14.5732 2.40585 14.5535 2.30906 14.5148 2.19296L14.3598 1.47684L14.2046 1.51546L14.1659 1.34218L14.321 1.30356L14.2433 0.993894L14.417 0.820616L14.5335 1.26619L14.7469 1.20801L14.7856 1.38129L14.5722 1.41991L14.7272 2.15534C14.7434 2.19295 14.7562 2.23176 14.7661 2.27144C14.7853 2.29075 14.8048 2.29075 14.8243 2.31006H14.902C14.9214 2.29149 14.941 2.29149 14.9795 2.27119H14.9805ZM15.2522 2.4066L14.941 0.664915L15.1544 0.626299L15.4647 2.36798L15.2522 2.4066ZM16.824 1.49714C16.8468 1.67093 16.8128 1.84745 16.727 2.00038C16.6791 2.07139 16.616 2.13084 16.542 2.17435C16.4682 2.21786 16.3855 2.24436 16.3 2.25188C16.2202 2.26551 16.1381 2.26037 16.0606 2.23687C15.9831 2.21336 15.9122 2.17214 15.8533 2.11649C15.7296 1.99161 15.6539 1.82714 15.6399 1.6521V1.61323L16.5907 1.49714C16.578 1.38831 16.5303 1.28649 16.4549 1.20678C16.4145 1.16733 16.3653 1.13799 16.3113 1.12117C16.2573 1.10434 16.2002 1.10051 16.1444 1.10999C16.0699 1.11804 16.0004 1.1512 15.9474 1.20399C15.8943 1.25678 15.8609 1.32605 15.8526 1.40035H15.6198C15.6326 1.2731 15.6904 1.15457 15.783 1.06592C15.8753 0.977272 15.9964 0.924281 16.1243 0.916415C16.2102 0.901446 16.2985 0.905837 16.3824 0.929266C16.4663 0.952697 16.544 0.99457 16.6095 1.05182C16.7295 1.17168 16.8047 1.3288 16.8228 1.49714H16.824ZM16.5913 1.67041L15.8927 1.74789C15.9016 1.83311 15.9353 1.91387 15.9898 1.98008C16.0272 2.018 16.0732 2.04653 16.1237 2.06336C16.1744 2.08018 16.2282 2.0848 16.2809 2.07687C16.3787 2.0638 16.4683 2.01566 16.5332 1.94147C16.5813 1.85999 16.6013 1.76504 16.59 1.67116L16.5913 1.67041ZM17.1539 2.15435L17.0754 0.877798L17.2695 0.858491V1.05207C17.3072 0.982577 17.3527 0.917628 17.4053 0.858491C17.449 0.835598 17.4944 0.816148 17.541 0.800319C17.6218 0.803439 17.7011 0.823248 17.7739 0.858491L17.6961 1.07137C17.6517 1.0385 17.5959 1.02461 17.541 1.03276C17.5183 1.03217 17.4958 1.03717 17.4755 1.04732C17.4552 1.05747 17.4377 1.07244 17.4247 1.09093C17.4044 1.10405 17.3873 1.1211 17.3739 1.14105C17.3606 1.161 17.3513 1.18345 17.3469 1.20702C17.3309 1.28984 17.3243 1.37423 17.3276 1.45852L17.3663 2.13579L17.1539 2.15435ZM17.9493 0.586693V0.335938H18.1628L18.182 0.587436L17.9493 0.586693ZM17.988 2.09668L17.9689 0.819875H18.1823L18.2017 2.09716L17.988 2.09668ZM18.5314 2.07737L18.5506 0.800072L18.7448 0.819379V0.992656C18.7893 0.92601 18.8502 0.8716 18.9213 0.834409C18.9925 0.797218 19.0719 0.778433 19.1522 0.779773C19.2276 0.77827 19.3017 0.798468 19.3657 0.837945C19.3982 0.845524 19.4288 0.859758 19.4555 0.879743C19.4822 0.899727 19.5044 0.925028 19.5208 0.95404C19.5517 1.00056 19.5717 1.05345 19.5791 1.10875C19.5984 1.17799 19.6048 1.25009 19.5985 1.32163L19.5791 2.09568H19.3657V1.32287C19.3724 1.25771 19.3658 1.19186 19.3464 1.1293C19.3321 1.08397 19.3051 1.04367 19.2687 1.0132C19.2196 0.991332 19.1671 0.97826 19.1135 0.974585C19.023 0.9704 18.9338 0.997796 18.8614 1.05207C18.7861 1.15178 18.7509 1.27607 18.7631 1.40035L18.7438 2.09716L18.5314 2.07737ZM20.6454 1.61323L20.8588 1.63254C20.8589 1.71153 20.8719 1.78997 20.8975 1.86473C20.9319 1.93591 20.9856 1.99598 21.0527 2.038C21.1317 2.08179 21.2167 2.11436 21.3048 2.1348C21.3821 2.14462 21.4604 2.14462 21.5376 2.1348C21.6014 2.12472 21.6612 2.09799 21.7114 2.05731C21.7558 2.01724 21.7834 1.96204 21.789 1.90261C21.7954 1.87993 21.797 1.85619 21.7936 1.83288C21.7903 1.80957 21.7822 1.7872 21.7697 1.7672C21.7402 1.7087 21.6925 1.66123 21.634 1.6318C21.545 1.57198 21.4474 1.52653 21.3443 1.49714C21.1891 1.41966 21.0725 1.36173 21.0144 1.32386C20.947 1.27361 20.8936 1.20697 20.8594 1.13029C20.8337 1.05568 20.8271 0.975899 20.8399 0.898097C20.8628 0.813719 20.9023 0.734768 20.9563 0.665906C21.0261 0.598242 21.1132 0.55105 21.208 0.529512C21.317 0.510125 21.4288 0.510125 21.5379 0.529512C21.6548 0.54443 21.7673 0.584006 21.8677 0.645608C21.9572 0.698494 22.0257 0.780478 22.0618 0.877798C22.1057 0.967906 22.1192 1.06974 22.1005 1.16816L21.8677 1.14885C21.8775 1.10085 21.8757 1.0512 21.8622 1.00405C21.849 0.956903 21.8246 0.913615 21.791 0.877798C21.7211 0.799069 21.6231 0.75052 21.5181 0.742396C21.4097 0.706552 21.2916 0.713461 21.1881 0.761703C21.1562 0.773915 21.1282 0.794923 21.1076 0.822299C21.0869 0.849674 21.0745 0.882302 21.0718 0.916415C21.0632 0.946223 21.0622 0.977699 21.0691 1.00797C21.0758 1.03824 21.0901 1.06633 21.1105 1.08969C21.1997 1.16995 21.3058 1.22917 21.421 1.26297C21.5542 1.30551 21.6789 1.37103 21.7896 1.45654C21.8737 1.50706 21.9412 1.58107 21.9836 1.66943C22.0246 1.74651 22.0383 1.83513 22.0223 1.92092C22.0049 2.01694 21.9573 2.10498 21.8865 2.17243C21.8234 2.25205 21.7342 2.30684 21.6344 2.32713C21.5198 2.35616 21.3998 2.35616 21.2852 2.32713C21.1463 2.31846 21.0123 2.27235 20.8975 2.19372C20.7975 2.13921 20.7215 2.04956 20.684 1.94221C20.6417 1.83806 20.6282 1.72437 20.6454 1.61323ZM22.2171 2.48407L22.5082 1.24638L22.7217 1.285L22.4303 2.54225L22.2171 2.48407ZM22.6828 2.71627L22.8768 2.79374C22.8667 2.8204 22.8651 2.84948 22.872 2.87712C22.8788 2.90477 22.8941 2.92965 22.9155 2.94846C22.9379 2.98024 22.9669 3.00698 23.0003 3.02697C23.0337 3.04697 23.071 3.05976 23.1097 3.06454C23.1454 3.08388 23.1853 3.09399 23.226 3.09399C23.2667 3.09399 23.3067 3.08388 23.3424 3.06454C23.3762 3.05374 23.4073 3.03615 23.434 3.01286C23.4607 2.98958 23.4823 2.96109 23.4976 2.92915C23.538 2.85044 23.5642 2.76534 23.5752 2.67764C23.5227 2.71533 23.4619 2.74022 23.3979 2.75033C23.334 2.76042 23.2684 2.75545 23.2068 2.73582C23.1281 2.72251 23.0543 2.68862 22.9932 2.6376C22.9319 2.58658 22.8854 2.52028 22.8583 2.44545C22.7935 2.2986 22.7866 2.13279 22.8389 1.98108C22.8601 1.86895 22.9065 1.76307 22.9746 1.6714C23.0394 1.58513 23.1267 1.51819 23.2267 1.47783C23.3283 1.44873 23.4359 1.44873 23.5373 1.47783C23.6073 1.49426 23.6722 1.52756 23.7264 1.57481C23.7805 1.62207 23.8222 1.68183 23.8478 1.74888L23.8864 1.59417L24.0806 1.65234L23.8088 2.71675C23.7731 2.86063 23.7144 2.99786 23.635 3.12322C23.5725 3.19026 23.4916 3.23736 23.4022 3.25862C23.286 3.28036 23.1662 3.27374 23.053 3.23931C22.9255 3.21067 22.8102 3.14298 22.7232 3.04573C22.692 2.99741 22.6721 2.94268 22.6651 2.88562C22.6581 2.82857 22.6641 2.77067 22.6828 2.71627ZM23.0513 2.01919C23.012 2.14526 23.012 2.28027 23.0513 2.40634C23.099 2.48803 23.1749 2.54962 23.2647 2.57962C23.3115 2.58977 23.3601 2.58983 23.4069 2.57981C23.4539 2.56977 23.498 2.54988 23.5365 2.52146C23.6356 2.44406 23.7043 2.33448 23.7305 2.21178C23.7527 2.15272 23.7624 2.08976 23.7591 2.02681C23.7557 1.96386 23.7393 1.90228 23.711 1.84592C23.6941 1.7986 23.6659 1.75615 23.6286 1.72237C23.5915 1.6886 23.5464 1.66454 23.4976 1.65234C23.4539 1.64328 23.4086 1.64379 23.3651 1.65383C23.3215 1.66387 23.2807 1.68321 23.2455 1.71052C23.1935 1.74592 23.1495 1.79159 23.1161 1.8447C23.0827 1.89781 23.0607 1.95721 23.0513 2.01919ZM23.9051 1.10974L24.0602 1.14836C24.0296 1.23291 23.9674 1.30232 23.8864 1.34193C23.8074 1.37781 23.718 1.38465 23.6343 1.36124C23.5434 1.33309 23.4626 1.27937 23.4015 1.20653C23.3571 1.13055 23.343 1.0407 23.3618 0.954782L23.4976 0.993398C23.4987 1.04109 23.512 1.0877 23.5363 1.1288C23.5494 1.14888 23.5665 1.1661 23.5865 1.17941C23.6065 1.19273 23.629 1.20187 23.6527 1.20628C23.7024 1.22628 23.7581 1.22628 23.8078 1.20628C23.8492 1.1846 23.883 1.15106 23.9051 1.10999V1.10974ZM24.2156 2.38703C24.2435 2.2942 24.2907 2.20828 24.3543 2.13491C24.4178 2.06154 24.4962 2.00238 24.5841 1.96127C24.7223 1.91297 24.8729 1.91297 25.011 1.96127C25.0893 1.98864 25.161 2.03219 25.2211 2.0891C25.2814 2.14602 25.3289 2.21499 25.3604 2.29149C25.3907 2.37249 25.4046 2.45867 25.4013 2.54504C25.398 2.63142 25.3776 2.71628 25.3412 2.79474C25.3066 2.91951 25.2397 3.03298 25.147 3.1237C25.0661 3.1947 24.9667 3.24144 24.8602 3.25856C24.7539 3.27569 24.6446 3.26249 24.5454 3.2205C24.4683 3.19685 24.3972 3.15691 24.337 3.10339C24.2766 3.04986 24.2286 2.98401 24.1962 2.91033C24.135 2.73999 24.1418 2.55265 24.2156 2.38729V2.38703ZM24.4291 2.46452C24.37 2.58478 24.3563 2.72216 24.3902 2.85166C24.4102 2.89711 24.4395 2.93785 24.4763 2.97121C24.513 3.00457 24.5566 3.0298 24.6038 3.04524C24.6502 3.06601 24.701 3.07512 24.7517 3.07175C24.8025 3.06839 24.8516 3.05265 24.8949 3.02593C25.0105 2.9575 25.0942 2.84614 25.1277 2.71627C25.1864 2.60294 25.2003 2.47169 25.1664 2.34867C25.147 2.30066 25.1182 2.25705 25.0815 2.22046C25.0448 2.18388 25.0011 2.15507 24.953 2.13579C24.9066 2.115 24.8558 2.10591 24.805 2.10928C24.7543 2.11264 24.705 2.12837 24.6618 2.1551C24.5506 2.22819 24.4682 2.3377 24.4291 2.46476V2.46452ZM25.3409 3.52893L25.8648 2.36772L26.0385 2.44521L25.9609 2.61848C26.0191 2.56991 26.0845 2.53074 26.1549 2.50239C26.2074 2.49926 26.26 2.5058 26.3101 2.5217C26.3772 2.56202 26.436 2.61449 26.4838 2.67642L26.3286 2.83112C26.292 2.78834 26.2454 2.75511 26.1929 2.73434C26.1735 2.72185 26.1513 2.71376 26.1283 2.71064C26.1054 2.70753 26.0821 2.70943 26.0598 2.71627C26.0168 2.73518 25.9774 2.76139 25.9435 2.79374C25.8872 2.85709 25.8414 2.92895 25.8077 3.00662L25.5359 3.62547L25.3409 3.52893ZM26.6022 3.89653L26.5438 4.0901C26.49 4.07732 26.4377 4.05777 26.3887 4.03192C26.3272 4.00836 26.2735 3.96815 26.2336 3.91584C26.2093 3.87473 26.196 3.82811 26.1949 3.78043C26.2151 3.69853 26.2478 3.6202 26.2919 3.54824L26.6217 2.89028L26.486 2.81281L26.5638 2.65809L26.6995 2.73558L26.8541 2.46476L27.1063 2.44545L26.8928 2.83261L27.0868 2.92939L27.0092 3.08411L26.8152 2.98731L26.4852 3.64528C26.4576 3.67925 26.4377 3.71888 26.427 3.76136C26.4256 3.77189 26.4267 3.78258 26.43 3.79265C26.4334 3.80271 26.439 3.8119 26.4463 3.81954C26.4657 3.83885 26.485 3.85816 26.5047 3.85816C26.5314 3.88241 26.566 3.89613 26.6022 3.89677V3.89653ZM27.4957 4.4577C27.4059 4.47309 27.3148 4.47956 27.2239 4.47701C27.1402 4.46163 27.0609 4.42862 26.991 4.38021C26.887 4.33468 26.8039 4.25181 26.7583 4.14803C26.7325 4.04992 26.7464 3.94564 26.797 3.85766C26.8163 3.79949 26.8747 3.76088 26.9134 3.72226C26.9718 3.70294 27.0105 3.68364 27.0686 3.66409C27.1271 3.66101 27.1858 3.66753 27.2423 3.68339C27.3053 3.70818 27.3701 3.72765 27.4363 3.74157C27.5538 3.79998 27.6774 3.84539 27.8049 3.87697C27.8242 3.83835 27.8242 3.83835 27.8242 3.8188C27.8477 3.79312 27.8639 3.76151 27.8706 3.72739C27.8774 3.69327 27.8749 3.65795 27.863 3.62523C27.8476 3.5859 27.8243 3.55019 27.7944 3.52036C27.7645 3.49053 27.7287 3.46724 27.6893 3.45195C27.6269 3.40652 27.5528 3.37966 27.4759 3.37446C27.4013 3.39385 27.334 3.43415 27.2817 3.49056L27.108 3.37446C27.1584 3.30721 27.2252 3.25394 27.3021 3.21976C27.3765 3.19236 27.457 3.18569 27.5348 3.20045C27.6273 3.22713 27.7181 3.25946 27.8066 3.29723C27.8889 3.33999 27.9614 3.39894 28.0201 3.47051C28.0587 3.52868 28.0977 3.56729 28.0977 3.62523C28.1171 3.67498 28.1171 3.73018 28.0977 3.77993C28.0696 3.84645 28.0372 3.9111 28.0008 3.9735L27.865 4.22501C27.7679 4.39828 27.7098 4.51537 27.6913 4.55398C27.6753 4.61031 27.6687 4.66884 27.6719 4.72726L27.4584 4.61116C27.4746 4.55473 27.4746 4.51611 27.4948 4.45794L27.4957 4.4577ZM27.7284 4.01212C27.6069 4.00238 27.4884 3.96952 27.3792 3.91534C27.3123 3.90438 27.247 3.88483 27.1852 3.85716C27.1439 3.86116 27.1041 3.87436 27.0687 3.89578C27.0494 3.89578 27.0105 3.93439 26.991 3.95395C26.9719 4.01012 26.9719 4.07105 26.991 4.12722C27.0202 4.18601 27.0678 4.23358 27.1268 4.26263C27.1988 4.29998 27.2786 4.3199 27.3596 4.32081C27.4285 4.31959 27.4957 4.29945 27.5537 4.26263C27.6023 4.20757 27.6477 4.14972 27.6894 4.08936L27.7284 4.01212ZM27.8642 4.88296L28.873 3.45095L29.0468 3.56705L28.0379 5.01861L27.8642 4.88296ZM29.0865 5.6184C28.9947 5.61645 28.9035 5.60347 28.8148 5.57978C28.7363 5.55647 28.6635 5.51692 28.6014 5.46369C28.5523 5.43391 28.5099 5.39454 28.4765 5.34795C28.4432 5.30136 28.4196 5.24854 28.4072 5.19264C28.4004 5.14152 28.4038 5.08956 28.4171 5.03973C28.4305 4.98991 28.4535 4.94319 28.4849 4.90227C28.5216 4.85948 28.5683 4.82626 28.6206 4.80549C28.673 4.77466 28.7339 4.76115 28.7944 4.76687C28.8481 4.77055 28.9005 4.78362 28.9496 4.80549C28.9883 4.8248 29.0466 4.86365 29.1233 4.90227C29.2311 4.97585 29.3486 5.03416 29.4725 5.07555L29.5112 5.03694C29.5586 4.98316 29.586 4.91484 29.5888 4.84336C29.5562 4.76576 29.5025 4.69874 29.4338 4.64978C29.4065 4.62009 29.3737 4.5962 29.337 4.57955C29.3003 4.56292 29.2606 4.55388 29.2204 4.553C29.148 4.55266 29.0783 4.58045 29.0262 4.63047L28.871 4.47577C28.9333 4.42253 29.006 4.38298 29.0846 4.35967C29.162 4.33815 29.2445 4.345 29.3173 4.37897C29.407 4.41288 29.4918 4.4584 29.5696 4.51438C29.6391 4.57391 29.7039 4.63861 29.7636 4.70796C29.783 4.78543 29.822 4.82404 29.822 4.88122C29.8183 4.93468 29.8051 4.98704 29.7831 5.03594C29.749 5.0967 29.7102 5.15463 29.6668 5.20922L29.4931 5.44141C29.4007 5.53271 29.3223 5.63705 29.2602 5.75108C29.2377 5.8014 29.2182 5.85306 29.202 5.90579L29.0282 5.75108C29.0471 5.71593 29.0665 5.65801 29.0858 5.61914L29.0865 5.6184ZM29.3777 5.21194C29.2621 5.17346 29.1513 5.12153 29.0478 5.05723C28.9701 5.01861 28.912 4.99906 28.874 4.97975H28.7577C28.7284 4.99425 28.7022 5.01397 28.68 5.03792C28.6606 5.05812 28.6468 5.08301 28.6401 5.11015C28.6332 5.13728 28.6336 5.16571 28.6413 5.19264C28.6459 5.22853 28.6589 5.26286 28.679 5.29293C28.6993 5.32299 28.7262 5.34798 28.7577 5.3659C28.8137 5.41325 28.8802 5.44645 28.9517 5.4627C29.0252 5.47057 29.0993 5.45716 29.1653 5.42408C29.2235 5.40478 29.2622 5.3466 29.3203 5.26937L29.3777 5.21194ZM29.4164 6.06348L30.2314 5.07653L30.3866 5.21194L30.2701 5.34735C30.3468 5.32473 30.4278 5.32174 30.5059 5.33865C30.584 5.35557 30.6565 5.39185 30.7169 5.44413C30.768 5.49706 30.8136 5.55513 30.8527 5.61741C30.8835 5.66965 30.8971 5.7303 30.8914 5.79068C30.8877 5.85011 30.8747 5.90861 30.8527 5.96396C30.8037 6.01228 30.7585 6.06396 30.7169 6.11867L30.2123 6.73752L30.0385 6.5828L30.5432 5.98277C30.5897 5.93744 30.6289 5.88527 30.6595 5.82806C30.679 5.78944 30.6595 5.73128 30.6595 5.69266C30.6387 5.64034 30.6054 5.59386 30.5625 5.55726C30.4959 5.50593 30.4139 5.47862 30.3298 5.47978C30.267 5.48746 30.2066 5.50876 30.1529 5.54221C30.0994 5.57565 30.0537 5.62042 30.0193 5.67336L29.5726 6.19591L29.4164 6.06348ZM30.4448 6.97292L31.415 6.1214L31.5508 6.2761L31.415 6.3922C31.4867 6.38984 31.5584 6.39633 31.6285 6.41151C31.7004 6.44527 31.7661 6.49106 31.8226 6.54692C31.875 6.60691 31.9088 6.6809 31.9197 6.7598C31.9354 6.83307 31.9215 6.9096 31.8809 6.97268C31.9624 6.95616 32.0469 6.96182 32.1255 6.98903C32.2041 7.01625 32.2739 7.06403 32.3277 7.1274C32.3645 7.16553 32.3924 7.21139 32.4091 7.26162C32.4259 7.31186 32.4312 7.36519 32.4246 7.41775C32.4191 7.47594 32.4005 7.53215 32.3704 7.58236C32.3404 7.63255 32.2996 7.67551 32.2509 7.70811L31.5913 8.26928L31.4556 8.11457L32.0572 7.59201L32.1929 7.45662C32.2102 7.4137 32.2168 7.36724 32.2122 7.32121L32.154 7.20512C32.0897 7.14401 32.0086 7.10357 31.9211 7.08902C31.8162 7.09677 31.7185 7.14541 31.6493 7.22443L31.0867 7.70836L30.9509 7.53509L31.5714 6.99323C31.6337 6.95112 31.6813 6.89049 31.7071 6.81994C31.7155 6.78855 31.7145 6.75537 31.7041 6.72456C31.6938 6.69375 31.6746 6.66666 31.6489 6.64667C31.6085 6.60134 31.5562 6.56822 31.4978 6.55111C31.4396 6.53399 31.3776 6.53356 31.319 6.54988C31.2342 6.58966 31.1556 6.6418 31.0863 6.7046L30.5816 7.13036L30.4448 6.97292Z" fill="#1F4A82"/>
<path d="M32.4049 9.12248C32.3131 9.10359 32.2268 9.06386 32.1528 9.00638C32.0824 8.97063 32.0226 8.91733 31.9791 8.85168C31.9011 8.76001 31.8596 8.6429 31.8627 8.5227C31.88 8.42206 31.9355 8.33196 32.0178 8.2712C32.06 8.2324 32.1157 8.21154 32.1732 8.21302C32.2317 8.20996 32.2904 8.21648 32.3468 8.23234C32.3961 8.2507 32.4419 8.27685 32.4826 8.30982C32.5214 8.34843 32.5797 8.38729 32.6378 8.44521C32.7184 8.55154 32.8169 8.64316 32.9288 8.71603C32.9483 8.69672 32.9677 8.69671 32.9677 8.6774C32.9997 8.66521 33.0276 8.64422 33.0482 8.61684C33.0689 8.58946 33.0813 8.55681 33.084 8.5227C33.0852 8.47935 33.0772 8.43624 33.0605 8.39622C33.0438 8.35619 33.0186 8.32017 32.9869 8.29051C32.951 8.2187 32.8887 8.16329 32.8132 8.13555C32.7423 8.11408 32.6657 8.12101 32.5998 8.15486L32.5027 7.96129C32.5731 7.92056 32.6557 7.90684 32.7355 7.92267C32.8136 7.9219 32.8894 7.94942 32.9487 8.00014C33.0382 8.05028 33.112 8.12392 33.1624 8.21302C33.2164 8.2819 33.2559 8.36083 33.2788 8.44521C33.3033 8.49954 33.31 8.56014 33.2982 8.61849C33.2843 8.66944 33.2576 8.71603 33.2208 8.7539C33.1727 8.80317 33.1207 8.84845 33.0653 8.8893L32.8326 9.06258C32.7228 9.13134 32.6191 9.20899 32.5221 9.29477C32.4851 9.33649 32.4527 9.38185 32.425 9.43018L32.2893 9.23659C32.323 9.19397 32.3618 9.15564 32.4049 9.12248ZM32.7738 8.81281C32.6763 8.74385 32.5855 8.66614 32.5023 8.58062C32.462 8.53068 32.4163 8.48528 32.3662 8.44521C32.3295 8.42946 32.2896 8.42283 32.2499 8.4259C32.211 8.4259 32.1918 8.44523 32.1531 8.46453C32.1315 8.48057 32.1134 8.50087 32.1001 8.52416C32.0867 8.54746 32.0783 8.57324 32.0753 8.59993C32.0791 8.66814 32.0991 8.7345 32.1337 8.7935C32.1815 8.8502 32.2407 8.89632 32.3074 8.92891C32.3739 8.96032 32.4476 8.97363 32.5208 8.96752C32.5909 8.9473 32.6567 8.9145 32.715 8.87073L32.7738 8.81281ZM32.8515 9.37399L33.0065 9.52893C32.9725 9.5489 32.944 9.57709 32.9236 9.61091C32.9033 9.64474 32.8917 9.68311 32.8902 9.72251C32.8816 9.80432 32.9022 9.88654 32.9483 9.95469C32.9905 10.0215 33.0506 10.0751 33.122 10.1094C33.1504 10.1204 33.181 10.1244 33.2112 10.121C33.2415 10.1177 33.2705 10.1071 33.2957 10.0901C33.3157 10.0786 33.332 10.0615 33.3424 10.0408C33.3527 10.0202 33.3567 9.99693 33.3538 9.97402C33.3443 9.89448 33.3249 9.81645 33.2957 9.74183C33.2491 9.63689 33.2164 9.52629 33.1987 9.41285C33.1848 9.3546 33.1917 9.29334 33.2181 9.23956C33.2466 9.18663 33.2863 9.14044 33.3344 9.10416C33.3783 9.06825 33.4328 9.0478 33.4895 9.04599C33.5481 9.04292 33.6068 9.04945 33.6633 9.0653C33.7063 9.08418 33.7457 9.11039 33.7797 9.14277C33.8349 9.18482 33.8811 9.23741 33.9157 9.29749C33.9561 9.37124 33.9887 9.44908 34.0127 9.52969C34.0322 9.59932 34.0322 9.67293 34.0127 9.74257C33.9868 9.81308 33.9393 9.87369 33.8769 9.91584L33.7412 9.74257C33.7664 9.72563 33.7868 9.7025 33.8004 9.67539C33.8141 9.64828 33.8204 9.61812 33.819 9.58785C33.8265 9.55331 33.8252 9.51737 33.815 9.48348C33.8048 9.44961 33.7861 9.4189 33.7606 9.39428C33.7025 9.31681 33.6635 9.25887 33.6054 9.25887C33.5841 9.2493 33.561 9.24435 33.5376 9.24435C33.5142 9.24435 33.491 9.2493 33.4696 9.25887C33.4503 9.27818 33.4308 9.29749 33.4308 9.31705C33.4211 9.33488 33.4161 9.35483 33.4161 9.37509C33.4161 9.39536 33.4211 9.41531 33.4308 9.43314C33.4435 9.49291 33.4631 9.55105 33.489 9.60642C33.5229 9.71406 33.5489 9.82401 33.5667 9.93539C33.578 9.9671 33.582 10.0009 33.5787 10.0343C33.5753 10.0678 33.5647 10.1001 33.5474 10.129C33.5203 10.1831 33.4803 10.2296 33.4308 10.2644C33.3667 10.3037 33.2927 10.3238 33.2175 10.3223C33.1785 10.3243 33.1396 10.3184 33.103 10.3051C33.0663 10.2918 33.0326 10.2713 33.0041 10.2448C32.9257 10.1956 32.8595 10.1295 32.8102 10.0512C32.7247 9.94866 32.6829 9.81665 32.6939 9.68365C32.6974 9.62396 32.7131 9.56563 32.7403 9.51228C32.7672 9.45892 32.8051 9.41168 32.8512 9.37348L32.8515 9.37399ZM33.2202 10.6899L34.3262 10.0512L34.4427 10.2448L33.3173 10.8835L33.2202 10.6899ZM33.8217 11.8318L35.4708 11.1545L35.9175 12.2769L35.7235 12.3543L35.3743 11.4632L34.8504 11.6568L35.1609 12.4308L34.9667 12.5083L34.6562 11.7343L33.9189 12.0439L33.8217 11.8318ZM34.9278 12.9155C35.0164 12.8742 35.1136 12.8545 35.2114 12.8578C35.3092 12.8612 35.4049 12.8876 35.4904 12.9348C35.5566 12.9673 35.6152 13.0134 35.6623 13.0701C35.7094 13.1268 35.7438 13.1928 35.7635 13.2638C35.7943 13.3379 35.8087 13.4179 35.8053 13.4981C35.802 13.5783 35.7811 13.6569 35.7441 13.7282C35.6537 13.8802 35.5075 13.9913 35.3365 14.0378C35.2149 14.0922 35.0807 14.1123 34.9485 14.096C34.8464 14.079 34.7518 14.0318 34.6769 13.9606C34.5973 13.8861 34.5376 13.7931 34.5032 13.6898C34.4727 13.6156 34.4587 13.5356 34.4621 13.4555C34.4654 13.3754 34.4859 13.2969 34.5225 13.2254C34.6123 13.0738 34.7575 12.9627 34.9276 12.9155H34.9278ZM35.0053 13.1284C34.9418 13.1409 34.8814 13.1663 34.8281 13.2029C34.7747 13.2395 34.7295 13.2866 34.6951 13.3413C34.6443 13.4292 34.6303 13.5335 34.6561 13.6316C34.6724 13.6813 34.7002 13.7265 34.7373 13.7635C34.7743 13.8005 34.8197 13.8282 34.8695 13.8445C34.9316 13.8698 34.9986 13.8812 35.0657 13.8779C35.1328 13.8745 35.1983 13.8566 35.2577 13.8252C35.3212 13.8127 35.3816 13.7874 35.435 13.7508C35.4884 13.7142 35.5336 13.667 35.5681 13.6123C35.5949 13.5692 35.6107 13.5202 35.614 13.4695C35.6174 13.4189 35.6083 13.3683 35.5875 13.322C35.5719 13.2749 35.5466 13.2315 35.5132 13.1949C35.4798 13.1582 35.439 13.1289 35.3935 13.1091C35.266 13.0678 35.1276 13.0746 35.005 13.1284H35.0053ZM34.7919 14.5025L36.053 14.2314L36.0918 14.4047L35.9181 14.4433C35.9923 14.4771 36.0576 14.5281 36.1081 14.592C36.1588 14.6559 36.1933 14.731 36.2092 14.811C36.2262 14.8805 36.2326 14.9522 36.2286 15.0238C36.2146 15.0805 36.1881 15.1335 36.1509 15.1785C36.1027 15.2218 36.0507 15.2606 35.9955 15.2947C35.9288 15.3059 35.8637 15.3254 35.8016 15.3525L35.0253 15.5257L34.9866 15.3129L35.7434 15.1396C35.8133 15.1293 35.8797 15.1029 35.9374 15.0621C35.9575 15.049 35.9748 15.032 35.9882 15.012C36.0015 14.9921 36.0106 14.9696 36.0152 14.9461C36.0347 14.8963 36.0347 14.8409 36.0152 14.791C35.9965 14.7065 35.9484 14.631 35.8794 14.5782C35.7691 14.5303 35.6451 14.5234 35.5302 14.5589L34.8511 14.7136L34.7919 14.5025ZM35.2187 16.67L35.3738 16.6506C35.3101 16.6201 35.2553 16.5738 35.2146 16.5163C35.1738 16.4587 35.1485 16.3917 35.1411 16.3217C35.1251 16.2232 35.1386 16.1221 35.18 16.0312C35.2236 15.9327 35.2985 15.8511 35.3932 15.7991C35.4921 15.7345 35.6053 15.6946 35.7229 15.6829C35.8392 15.6603 35.9592 15.667 36.0721 15.7023C36.1781 15.722 36.2741 15.7763 36.3452 15.8569C36.4068 15.9357 36.4469 16.0291 36.4616 16.1278C36.4746 16.1992 36.4679 16.2727 36.4423 16.3406C36.4216 16.3987 36.3885 16.4515 36.3452 16.4954L36.9657 16.3986L36.9851 16.6114L35.2388 16.863L35.2187 16.67ZM35.7426 15.8958C35.6122 15.9071 35.4893 15.9616 35.3935 16.0506C35.3622 16.0879 35.3392 16.1312 35.3258 16.1779C35.3125 16.2246 35.3091 16.2736 35.3159 16.3217C35.3255 16.366 35.3442 16.4078 35.3709 16.4444C35.3976 16.4812 35.4317 16.5118 35.4711 16.5345C35.5758 16.5979 35.701 16.6188 35.8206 16.5926C35.9565 16.5807 36.0854 16.5266 36.1891 16.438C36.2267 16.4046 36.2553 16.3621 36.2723 16.3148C36.2893 16.2674 36.294 16.2166 36.2861 16.1669C36.2797 16.1191 36.2623 16.0732 36.2355 16.0329C36.2086 15.9928 36.1729 15.9592 36.1311 15.9347C36.0073 15.8874 35.8731 15.8739 35.7424 15.8958H35.7426ZM35.3545 18.044L35.5282 18.0248C35.4571 17.9862 35.3969 17.9305 35.3529 17.863C35.3089 17.7954 35.2824 17.7179 35.276 17.6376C35.2681 17.5643 35.2815 17.4904 35.3147 17.4246C35.3305 17.3644 35.3643 17.3104 35.4117 17.27C35.4544 17.229 35.5087 17.2021 35.5672 17.1925C35.6306 17.1737 35.6955 17.1608 35.7612 17.1538L36.5567 17.0957L36.5761 17.3086L35.858 17.3668C35.7848 17.3621 35.7115 17.3753 35.6446 17.4054C35.5862 17.4246 35.5282 17.444 35.5088 17.5022C35.4844 17.5502 35.4711 17.603 35.4698 17.6568C35.4838 17.7255 35.5101 17.7911 35.5475 17.8505C35.5843 17.8932 35.631 17.9265 35.6835 17.9472C35.7663 17.9648 35.8511 17.9714 35.9357 17.9665L36.6148 17.9083L36.634 18.1213L35.3728 18.2373L35.3545 18.044Z" fill="#1F4A82"/>
<path d="M2.34863 27.488L4.3473 27.2945L4.48307 27.5266L3.14433 28.9587L3.02793 28.7264L3.43545 28.3007L3.0669 27.6427L2.4849 27.7202L2.34863 27.488ZM3.28008 27.6234L3.57122 28.1459L3.95938 27.7588C4.03988 27.659 4.13101 27.5683 4.23115 27.488C4.11699 27.523 4.00022 27.5489 3.88195 27.5656L3.28008 27.6234ZM3.22177 28.9973L3.37689 28.9004L4.67691 29.0941C4.61857 29.0168 4.57986 28.9393 4.54114 28.8812L4.23065 28.4355L4.40439 28.3581L4.9864 29.2289L4.85063 29.3064L3.72534 29.1517L3.53126 29.1129C3.58956 29.1856 3.64147 29.2634 3.68638 29.3451L4.01623 29.8483L3.8611 29.9448L3.22177 28.9973ZM4.89059 30.5649L5.02635 30.7584C4.90347 30.8087 4.76861 30.8221 4.63819 30.7973C4.50629 30.7567 4.39077 30.6753 4.30834 30.5649C4.24861 30.5084 4.20334 30.4385 4.17635 30.361C4.14936 30.2834 4.14143 30.2006 4.15322 30.1194C4.19909 29.9433 4.31001 29.7912 4.46371 29.6934C4.53517 29.6313 4.61829 29.584 4.70823 29.5543C4.79817 29.5245 4.89314 29.5128 4.98764 29.5201C5.07035 29.5207 5.15183 29.5403 5.22582 29.5772C5.29981 29.6141 5.36435 29.6673 5.41452 29.733C5.46798 29.793 5.50778 29.864 5.53121 29.941C5.55464 30.0179 5.56115 30.0989 5.55028 30.1785C5.4993 30.3519 5.38958 30.5024 5.23979 30.6042C5.22365 30.6216 5.20368 30.6347 5.18146 30.6429L4.561 29.8882C4.46424 29.9594 4.39555 30.062 4.36692 30.1785C4.36021 30.2841 4.39501 30.3882 4.46395 30.4687C4.50484 30.528 4.56702 30.5696 4.63769 30.5847C4.72179 30.6068 4.81091 30.5999 4.89059 30.5652V30.5649ZM4.71686 29.7909L5.18246 30.3521C5.2583 30.3021 5.31342 30.2265 5.33758 30.1392C5.34793 30.0881 5.34631 30.0354 5.33283 29.985C5.31935 29.9347 5.29439 29.8882 5.25989 29.849C5.2028 29.7755 5.11935 29.727 5.0271 29.7136C4.91831 29.7115 4.8109 29.7382 4.71587 29.7911L4.71686 29.7909ZM4.89059 31.2035L5.93845 30.3906L6.05485 30.5454L5.89973 30.6615C5.98259 30.6415 6.06903 30.6415 6.15189 30.6615C6.1759 30.6646 6.19887 30.6733 6.21904 30.6867C6.2392 30.7 6.25605 30.7178 6.26829 30.7386C6.30064 30.7635 6.3264 30.796 6.3433 30.8332C6.36022 30.8702 6.36778 30.9109 6.36533 30.9515L6.15189 31.0094C6.14459 30.9602 6.12458 30.9135 6.09381 30.874C6.0777 30.8527 6.05732 30.8347 6.03397 30.8214C6.01063 30.8081 5.98477 30.7997 5.95805 30.7969C5.90567 30.7849 5.85078 30.7917 5.80294 30.8162C5.72135 30.8423 5.64786 30.889 5.5895 30.9515L5.02685 31.3774L4.89059 31.2035ZM5.6086 31.9583L5.45348 31.8229L6.83118 30.6229L6.98631 30.7775L6.50109 31.2034C6.5718 31.196 6.64327 31.2042 6.71038 31.2277C6.77749 31.2511 6.83858 31.2889 6.88926 31.3386C6.94189 31.3937 6.98164 31.4598 7.00566 31.532C7.03048 31.6001 7.03714 31.6735 7.02502 31.7449C7.01459 31.8293 6.98682 31.9107 6.94344 31.9841C6.90005 32.0573 6.84198 32.1209 6.77287 32.1707C6.63329 32.3104 6.44647 32.3933 6.24894 32.4028C6.09825 32.4052 5.95241 32.3499 5.8414 32.2482C5.78764 32.2009 5.74823 32.1397 5.72765 32.0712C5.70708 32.0027 5.70616 31.93 5.72501 31.8611L5.6086 31.9583ZM6.09381 31.5128C6.00816 31.5907 5.93604 31.6821 5.88037 31.7836C5.86762 31.8407 5.868 31.8999 5.88146 31.9569C5.89491 32.0138 5.92109 32.0671 5.95805 32.1125C6.03435 32.1757 6.13062 32.21 6.22982 32.2093C6.36432 32.1803 6.49037 32.121 6.59838 32.036C6.70493 31.9537 6.78022 31.8377 6.81182 31.707C6.82002 31.662 6.81724 31.6156 6.80372 31.5717C6.7902 31.5279 6.76634 31.488 6.73413 31.4553C6.69882 31.4202 6.65612 31.3933 6.60913 31.3765C6.56215 31.3599 6.51203 31.3536 6.46238 31.3586C6.32631 31.3708 6.19746 31.4251 6.09357 31.5135L6.09381 31.5128ZM7.25806 33.2158C7.15979 33.2151 7.06198 33.2022 6.96695 33.1771C6.88906 33.1435 6.81702 33.098 6.75351 33.0417C6.70201 33.0102 6.658 32.968 6.62448 32.9178C6.59097 32.8677 6.56878 32.8109 6.55941 32.7514C6.55601 32.6521 6.59072 32.5553 6.65646 32.4806C6.70044 32.4374 6.75339 32.4044 6.81158 32.3839C6.86804 32.3679 6.92673 32.3614 6.98531 32.3645C7.04772 32.3661 7.10822 32.3863 7.15905 32.4225C7.22053 32.4478 7.27884 32.4803 7.33277 32.5192C7.4496 32.5946 7.57295 32.6594 7.70133 32.7128L7.74005 32.6739C7.78324 32.6255 7.81036 32.565 7.81774 32.5006C7.80338 32.409 7.7549 32.3261 7.68198 32.2684C7.61492 32.2152 7.53429 32.1817 7.44918 32.1717C7.37152 32.1739 7.29667 32.2011 7.23574 32.2492L7.08061 32.0759C7.15044 32.0275 7.2298 31.9945 7.31341 31.9791C7.39787 31.9668 7.48398 31.9735 7.56558 31.9985C7.65384 32.0429 7.73818 32.0947 7.81774 32.1534C7.89332 32.2136 7.95883 32.2855 8.01182 32.3662C8.04817 32.4169 8.06848 32.4773 8.07014 32.5395C8.06516 32.5955 8.04499 32.6489 8.01182 32.6943C7.99246 32.7135 7.95349 32.7717 7.87606 32.8489L7.68198 33.0618C7.59304 33.1543 7.50886 33.2512 7.42982 33.3523C7.39393 33.396 7.37351 33.4504 7.37174 33.5069L7.17766 33.3715C7.19641 33.3161 7.22343 33.2637 7.25782 33.2163L7.25806 33.2158ZM7.58791 32.8482C7.46774 32.7984 7.35107 32.7404 7.23871 32.6749C7.18477 32.6361 7.12647 32.6036 7.06498 32.5781C7.02626 32.5781 6.98729 32.5589 6.94857 32.5781C6.90986 32.5975 6.8709 32.5975 6.85154 32.6363C6.81265 32.6783 6.79174 32.7339 6.79321 32.791C6.81806 32.857 6.85791 32.9163 6.90962 32.9643C6.97684 33.0045 7.04845 33.037 7.12306 33.0611C7.20106 33.0739 7.28105 33.0673 7.35585 33.0417C7.39457 33.0225 7.4529 32.9643 7.52959 32.9063L7.58791 32.8482ZM8.61641 32.4999L8.79014 32.3066L8.96387 32.442L8.79014 32.6356L8.61641 32.4999ZM7.60703 33.6797L8.46079 32.6732L8.63453 32.8086L7.78075 33.8149L7.60703 33.6797ZM9.00408 32.7699L9.1592 32.557L9.35328 32.6924L9.19817 32.8861L9.00408 32.7699ZM7.50998 34.2215L7.6651 34.1055C7.68446 34.1247 7.72342 34.1636 7.74278 34.1636C7.7568 34.1799 7.77615 34.1909 7.79745 34.1945C7.81875 34.198 7.84061 34.1939 7.85918 34.1829C7.87854 34.1829 7.93687 34.1247 8.01431 34.0282L8.84871 32.9445L9.04279 33.0799L8.20839 34.1636C8.09198 34.299 8.01431 34.3764 7.93662 34.3958C7.88756 34.4146 7.83419 34.4191 7.78265 34.4089C7.73113 34.3986 7.68357 34.374 7.64549 34.3378C7.59673 34.3044 7.55165 34.2658 7.51098 34.2228L7.50998 34.2215ZM9.37264 34.6087C9.27659 34.6283 9.17757 34.6283 9.08152 34.6087C8.99788 34.5934 8.91851 34.5604 8.84871 34.512C8.74243 34.4599 8.65942 34.3702 8.61591 34.2604C8.59721 34.1597 8.6181 34.0558 8.67424 33.9701C8.70435 33.9165 8.75243 33.8755 8.80999 33.8539C8.86548 33.832 8.92413 33.8189 8.98373 33.8151C9.04231 33.812 9.10101 33.8186 9.15746 33.8344C9.19619 33.8537 9.27386 33.873 9.35155 33.9118C9.47587 33.9753 9.60581 34.027 9.73972 34.0666C9.74786 34.0444 9.76112 34.0245 9.77843 34.0084C9.79765 33.9805 9.811 33.9488 9.81765 33.9155C9.8243 33.8824 9.82413 33.848 9.81715 33.8149C9.7827 33.7327 9.7215 33.6645 9.64341 33.6212C9.57547 33.5725 9.49429 33.5455 9.41061 33.5438C9.33478 33.5599 9.2665 33.6007 9.21653 33.6599L9.04279 33.5052C9.10629 33.4491 9.17834 33.4034 9.25625 33.3698C9.33262 33.3504 9.41267 33.3504 9.48905 33.3698C9.59205 33.3916 9.69054 33.4309 9.78016 33.4858C9.85952 33.5408 9.93129 33.6058 9.99362 33.6795C10.0323 33.7375 10.0713 33.7763 10.0713 33.8341C10.0744 33.8865 10.0679 33.9389 10.0519 33.9889C10.0178 34.0497 9.9789 34.1076 9.93554 34.1621L9.78042 34.4136C9.69663 34.5145 9.625 34.625 9.56698 34.7426C9.54279 34.7906 9.52958 34.8435 9.52826 34.8973L9.31481 34.7619C9.33709 34.7125 9.35632 34.6618 9.3724 34.6099L9.37264 34.6087ZM9.64441 34.2023C9.51874 34.1731 9.39552 34.1342 9.27585 34.0861C9.21573 34.0501 9.15021 34.0239 9.08177 34.0087C9.04195 34.0057 9.00199 34.0124 8.96536 34.0282C8.93614 34.0427 8.90981 34.0622 8.88768 34.0861C8.86908 34.1068 8.85583 34.1318 8.84908 34.1587C8.84233 34.1856 8.84229 34.2138 8.84897 34.2409C8.87732 34.3051 8.92469 34.3592 8.98472 34.3958C9.05132 34.4471 9.13337 34.4744 9.21752 34.4733C9.29091 34.4811 9.365 34.4677 9.43097 34.4347C9.50101 34.3964 9.55574 34.3351 9.58608 34.2614L9.64441 34.2023ZM9.76082 35.0152L10.4011 33.8927L10.5952 33.9896L10.4982 34.1443C10.5733 34.1062 10.6565 34.0862 10.7408 34.0862C10.8251 34.0862 10.9082 34.1062 10.9834 34.1443C11.0483 34.1798 11.107 34.2256 11.1571 34.28C11.2037 34.3286 11.2371 34.3882 11.2542 34.4532C11.2573 34.5117 11.2507 34.5702 11.2348 34.6265C11.2066 34.6931 11.1742 34.7577 11.1378 34.8201L10.7496 35.4973L10.5361 35.4006L10.9243 34.7233C10.9716 34.6695 10.9991 34.6013 11.002 34.5298C11.0076 34.4812 10.9937 34.4325 10.9633 34.3944C10.9388 34.348 10.897 34.3132 10.8469 34.2976C10.763 34.2551 10.6675 34.2416 10.5751 34.259C10.5179 34.2812 10.4659 34.3149 10.4225 34.3582C10.3791 34.4015 10.3452 34.4533 10.323 34.5104L9.97376 35.1292L9.76082 35.0152ZM11.7595 35.9635L12.3611 34.299L12.9816 34.4926C13.1173 34.5507 13.2144 34.5894 13.292 34.628C13.3761 34.6769 13.4488 34.7428 13.5055 34.8215C13.5644 34.9286 13.5977 35.0478 13.6025 35.1698C13.6106 35.3142 13.5908 35.4587 13.5442 35.5957C13.4944 35.7094 13.4364 35.8195 13.3705 35.9249C13.3094 35.9996 13.2375 36.065 13.157 36.1184C13.0921 36.1629 13.0199 36.1957 12.9436 36.2152C12.8607 36.232 12.776 36.2385 12.6914 36.2346C12.5919 36.2304 12.4937 36.2108 12.4003 36.1763L11.7595 35.9635ZM12.07 35.8474L12.4385 35.9635C12.532 35.9976 12.6302 36.0173 12.7297 36.0214C12.7968 36.0292 12.8648 36.0157 12.9237 35.9825C13.0076 35.9511 13.0813 35.8977 13.1372 35.8278C13.2041 35.7329 13.2564 35.6286 13.2923 35.5181C13.3451 35.3828 13.3651 35.2369 13.3506 35.0923C13.3353 34.9857 13.2799 34.8889 13.1955 34.8215C13.1019 34.7694 13.0046 34.7241 12.9044 34.6861L12.5358 34.5701L12.07 35.8474ZM14.5343 36.3503L14.767 36.4471C14.6994 36.5554 14.5967 36.6374 14.4759 36.6794C14.4119 36.7081 14.3424 36.7229 14.2722 36.7229C14.2019 36.7229 14.1324 36.7081 14.0684 36.6794C13.9847 36.6668 13.9047 36.6361 13.8343 36.5894C13.7639 36.5425 13.7046 36.4807 13.6609 36.4086C13.6188 36.3284 13.5953 36.2398 13.5919 36.1494C13.5886 36.059 13.6055 35.969 13.6415 35.886C13.661 35.7974 13.6986 35.714 13.7521 35.6407C13.8055 35.5675 13.8736 35.506 13.952 35.4603C14.1013 35.3831 14.2736 35.3626 14.4369 35.4023C14.5183 35.4213 14.5948 35.4569 14.6616 35.5068C14.7284 35.5568 14.7841 35.62 14.8251 35.6926C14.8625 35.7708 14.8835 35.8557 14.8867 35.9422C14.8902 36.0287 14.8758 36.115 14.8445 36.1957C14.8445 36.2149 14.8251 36.2346 14.8251 36.2538L13.8549 36.0023C13.8329 36.055 13.8232 36.1121 13.8266 36.1691C13.8299 36.226 13.8462 36.2815 13.8743 36.3314C13.9273 36.4207 14.0095 36.489 14.1071 36.5249C14.1842 36.5494 14.2679 36.5424 14.34 36.5055C14.3817 36.4957 14.4208 36.4768 14.4545 36.4501C14.488 36.4235 14.5154 36.3899 14.5347 36.3516L14.5343 36.3503ZM13.9138 35.8278L14.6512 36.0214C14.6756 35.938 14.6687 35.8484 14.6318 35.7697C14.6079 35.7235 14.575 35.6825 14.535 35.6494C14.495 35.616 14.4488 35.5911 14.3989 35.576C14.3023 35.5528 14.2007 35.5595 14.1078 35.5954C14.0183 35.6488 13.9499 35.7312 13.9143 35.829L13.9138 35.8278ZM14.8646 37.318L15.2138 35.5954L15.4272 35.6343L15.3885 35.7892C15.4438 35.7366 15.51 35.6971 15.5826 35.6731C15.6589 35.6536 15.739 35.6536 15.8154 35.6731C15.9245 35.6858 16.0267 35.7332 16.1065 35.8085C16.1814 35.8806 16.2294 35.9763 16.2423 36.0794C16.2811 36.1921 16.2811 36.3147 16.2423 36.4276C16.2174 36.5445 16.1714 36.656 16.1065 36.7565C16.0385 36.848 15.9435 36.9156 15.8348 36.9502C15.7352 36.9859 15.6275 36.9926 15.5243 36.9694C15.4531 36.9643 15.3853 36.9372 15.3302 36.892C15.2915 36.8531 15.2331 36.8145 15.2138 36.7565L15.078 37.3564L14.8646 37.318ZM15.2915 36.2535C15.2715 36.3174 15.2646 36.3846 15.2712 36.4511C15.2779 36.5176 15.2979 36.5821 15.3302 36.6408C15.3484 36.6834 15.378 36.7202 15.4155 36.7474C15.4531 36.7746 15.4973 36.7913 15.5436 36.7954C15.5948 36.8069 15.6481 36.806 15.6988 36.7924C15.7494 36.7789 15.7961 36.7534 15.8348 36.718C15.8858 36.6747 15.9275 36.6214 15.9573 36.5616C15.9871 36.5018 16.0046 36.4366 16.0084 36.37C16.0304 36.3105 16.04 36.2472 16.0367 36.184C16.0334 36.1208 16.0171 36.0589 15.9891 36.002C15.967 35.9576 15.935 35.9189 15.8953 35.8888C15.8558 35.8588 15.8098 35.8383 15.7609 35.8289C15.712 35.8195 15.6616 35.8215 15.6138 35.8347C15.5659 35.848 15.5216 35.8722 15.4846 35.9052C15.3827 35.9968 15.3145 36.1195 15.2908 36.2541L15.2915 36.2535ZM16.3587 36.4269C16.3647 36.3284 16.3921 36.2324 16.4391 36.1456C16.4861 36.0587 16.5513 35.9831 16.6304 35.9239C16.7569 35.8424 16.9081 35.8081 17.0573 35.8271C17.1415 35.8243 17.2253 35.8402 17.3025 35.8736C17.3799 35.9071 17.4487 35.9573 17.5041 36.0207C17.5616 36.0899 17.6035 36.1706 17.6269 36.2573C17.6503 36.3442 17.6547 36.435 17.6399 36.5236C17.6307 36.6537 17.5909 36.7798 17.5234 36.8915C17.4631 36.9864 17.3751 37.0607 17.2713 37.1044C17.1669 37.1467 17.0528 37.1601 16.9415 37.143C16.8563 37.1404 16.7725 37.1201 16.6957 37.0835C16.6187 37.0467 16.5503 36.9946 16.4946 36.9301C16.3844 36.7876 16.3352 36.6073 16.3579 36.4288L16.3587 36.4269ZM16.6109 36.4461C16.5946 36.5092 16.5932 36.5753 16.6066 36.6391C16.6201 36.7027 16.6481 36.7625 16.6885 36.8138C16.7159 36.8613 16.7556 36.9008 16.8033 36.928C16.8511 36.9553 16.9052 36.9693 16.9603 36.9687C17.0129 36.9735 17.066 36.9676 17.1161 36.9509C17.1662 36.9342 17.2123 36.9073 17.2514 36.8719C17.3442 36.7711 17.399 36.6411 17.4066 36.5044C17.4152 36.3769 17.3882 36.2497 17.3288 36.1365C17.2918 36.0957 17.247 36.0627 17.197 36.0393C17.1471 36.0161 17.0928 36.0032 17.0377 36.001C16.985 35.9932 16.9311 35.9978 16.8805 36.0146C16.8299 36.0315 16.784 36.06 16.7466 36.0979C16.7014 36.1441 16.6661 36.1991 16.6427 36.2593C16.6193 36.3196 16.6083 36.3838 16.6103 36.4484L16.6109 36.4461ZM17.7751 36.7752L18.0079 36.7558C18.0076 36.7934 18.0162 36.8306 18.033 36.8642C18.05 36.8979 18.0746 36.9271 18.105 36.9495C18.1364 36.9775 18.1732 36.9987 18.2133 37.0121C18.2533 37.0255 18.2957 37.0305 18.3377 37.0269C18.4258 37.0331 18.5136 37.013 18.5899 36.969C18.6115 36.9529 18.6295 36.9325 18.6429 36.9092C18.6562 36.8858 18.6646 36.8601 18.6676 36.8333C18.6662 36.8111 18.6602 36.7894 18.6503 36.7695C18.6403 36.7496 18.6265 36.7318 18.6095 36.7172C18.5708 36.6979 18.4931 36.6787 18.3767 36.6399C18.2549 36.6199 18.1371 36.5807 18.0275 36.5239C17.9637 36.4948 17.9097 36.4477 17.8724 36.3885C17.8482 36.3404 17.835 36.2875 17.8336 36.2337C17.8373 36.1743 17.8504 36.1158 17.8724 36.0606L17.9888 35.9444C18.0393 35.9219 18.091 35.9024 18.144 35.8863C18.2022 35.8863 18.2797 35.8669 18.338 35.8669C18.4372 35.873 18.5351 35.8927 18.6291 35.9252C18.6927 35.9546 18.7513 35.9938 18.8028 36.0412C18.8433 36.106 18.8699 36.1785 18.8806 36.2541L18.6478 36.2734C18.6382 36.2152 18.6111 36.1612 18.5701 36.1187C18.5071 36.0767 18.4322 36.0563 18.3567 36.0606C18.3171 36.0509 18.2763 36.0495 18.2362 36.056C18.1962 36.0627 18.1579 36.0774 18.1238 36.0992C18.1037 36.1123 18.0864 36.1293 18.073 36.1493C18.0597 36.1692 18.0506 36.1917 18.0462 36.2152C18.0462 36.2346 18.0654 36.2538 18.0849 36.2927C18.107 36.3166 18.1334 36.3361 18.1625 36.3506C18.3475 36.3952 18.5291 36.4531 18.7059 36.5239C18.769 36.5445 18.8235 36.5853 18.8609 36.6399C18.8849 36.6947 18.8982 36.7536 18.8996 36.8132C18.9016 36.8521 18.8957 36.891 18.8825 36.9275C18.869 36.9641 18.8485 36.9976 18.8219 37.0262C18.7691 37.0863 18.7026 37.1327 18.6279 37.1616C18.535 37.1961 18.4355 37.2093 18.3367 37.2004C18.1916 37.2093 18.0477 37.1683 17.9292 37.0843C17.8409 37.0049 17.7856 36.8954 17.7744 36.7773L17.7751 36.7752ZM19.1139 35.6721L19.0945 35.4205L19.3273 35.4013L19.3466 35.6528L19.1139 35.6721ZM19.1721 37.1821L19.1139 35.9048L19.3466 35.8854L19.3854 37.1628L19.1721 37.1821ZM20.22 36.911L20.2781 37.1047C20.22 37.1047 20.1617 37.1239 20.1043 37.1239C20.0392 37.1379 19.9714 37.1312 19.9103 37.1047C19.8702 37.0902 19.8362 37.0628 19.8132 37.0271C19.7664 36.952 19.7459 36.8636 19.7549 36.7756L19.6772 36.0402L19.5222 36.0596L19.5027 35.8863L19.6765 35.8669L19.6378 35.5572L19.8512 35.4026L19.8899 35.8481L20.1228 35.8288L20.142 36.002L19.9093 36.0214L19.987 36.7568C19.987 36.8148 19.987 36.8537 20.0063 36.8729C20.007 36.883 20.0113 36.8924 20.0184 36.8995C20.0255 36.9066 20.035 36.9109 20.0451 36.9116C20.0644 36.9308 20.0838 36.9308 20.1228 36.9308C20.1617 36.9308 20.1806 36.9127 20.2183 36.9127L20.22 36.911ZM21.2483 36.9885L20.8797 35.2662L21.1319 35.2273L21.4811 36.9496L21.2483 36.9885ZM21.908 36.8917L21.578 35.6541L21.7722 35.6155L21.8109 35.7888C21.8472 35.7143 21.8987 35.6482 21.9622 35.5948C22.0257 35.5414 22.0997 35.502 22.1795 35.4791C22.2559 35.4598 22.3358 35.4598 22.4122 35.4791C22.4742 35.4835 22.534 35.5034 22.5859 35.5372C22.6353 35.58 22.675 35.6327 22.7024 35.6919C22.7333 35.7524 22.753 35.8181 22.7607 35.8854L22.9741 36.6402L22.7414 36.6982L22.5472 35.9434C22.5283 35.8763 22.5021 35.8115 22.4696 35.7499C22.4339 35.7197 22.3949 35.6938 22.3532 35.6726H22.1795C22.1354 35.6831 22.094 35.7022 22.0573 35.7288C22.0207 35.7553 21.9896 35.7889 21.9661 35.8273C21.9077 35.8853 21.9077 36.0006 21.9467 36.1756L22.1204 36.8531L21.908 36.8917ZM23.1303 36.2337L23.3437 36.1367C23.3824 36.2142 23.4214 36.2724 23.4989 36.2917C23.578 36.3274 23.6673 36.3342 23.751 36.311C23.8337 36.2871 23.9077 36.24 23.9644 36.1753C23.9807 36.1534 23.9925 36.1283 23.9993 36.1019C24.0058 36.0752 24.0073 36.0478 24.0031 36.0207C23.9787 35.9743 23.9369 35.9395 23.8868 35.9239H23.6539C23.5307 35.9309 23.4072 35.9244 23.2855 35.9045C23.2493 35.9065 23.2134 35.9005 23.1798 35.8871C23.1463 35.8738 23.116 35.8533 23.0913 35.8271C23.0485 35.7905 23.0151 35.744 22.9942 35.6916C22.9847 35.6343 22.9847 35.5757 22.9942 35.5184C23.0082 35.4674 23.0351 35.4208 23.0719 35.383C23.0964 35.3367 23.1383 35.3018 23.1884 35.2861C23.2478 35.2488 23.3136 35.2226 23.3824 35.2087C23.4695 35.1783 23.5618 35.1651 23.6539 35.1701C23.7317 35.1718 23.8068 35.199 23.8673 35.2475C23.9265 35.2853 23.9736 35.339 24.0031 35.4023L23.7897 35.4991C23.778 35.4682 23.7598 35.4402 23.7364 35.4168C23.713 35.3935 23.6849 35.3754 23.6539 35.3637C23.5841 35.3439 23.5103 35.3439 23.4405 35.3637C23.3663 35.3838 23.2992 35.424 23.2465 35.4798C23.2077 35.5186 23.1881 35.5572 23.2077 35.5958C23.2077 35.6347 23.2271 35.6541 23.266 35.6733C23.2952 35.6909 23.3294 35.6978 23.3631 35.6926C23.3824 35.712 23.4601 35.712 23.5765 35.6926C23.6933 35.6862 23.8104 35.6926 23.9257 35.712C23.9584 35.7127 23.9905 35.72 24.0204 35.7332C24.0502 35.7466 24.0771 35.7657 24.0995 35.7895C24.1303 35.8033 24.1573 35.8248 24.1776 35.8518C24.198 35.8789 24.2111 35.9106 24.2158 35.9441C24.2352 36.0137 24.2352 36.0875 24.2158 36.1571C24.1817 36.2337 24.1282 36.3005 24.0608 36.3506C23.9891 36.412 23.9018 36.4521 23.8085 36.4666C23.6725 36.5205 23.5222 36.5273 23.3817 36.486C23.2753 36.4283 23.188 36.3413 23.1298 36.2356L23.1303 36.2337ZM25.4004 35.9048L25.3422 35.7315C25.3181 35.8111 25.2757 35.884 25.2184 35.9445C25.1612 36.0049 25.0907 36.0513 25.0123 36.0798C24.9436 36.1037 24.8715 36.1168 24.7989 36.1184C24.7296 36.1199 24.6617 36.0996 24.6047 36.0603C24.5506 36.0334 24.5039 35.9935 24.4689 35.9441C24.436 35.8898 24.4098 35.8316 24.3913 35.7708L24.0615 35.0354L24.2749 34.9579L24.566 35.6159C24.5943 35.6824 24.6267 35.747 24.6631 35.8095C24.6942 35.858 24.7429 35.8925 24.7989 35.9062C24.8641 35.9183 24.9313 35.9116 24.993 35.887C25.0561 35.8664 25.1106 35.8256 25.148 35.7708C25.1872 35.7217 25.2077 35.6603 25.2064 35.5977C25.201 35.5174 25.1813 35.4388 25.148 35.3654L24.8762 34.7267L25.0898 34.6492L25.5943 35.8298L25.4004 35.9048ZM25.905 35.6919L25.3231 34.5308L25.5171 34.4535L25.5947 34.6267C25.6066 34.554 25.626 34.4825 25.6531 34.4139C25.687 34.3705 25.7261 34.3314 25.7695 34.2978C25.8509 34.2715 25.9372 34.2648 26.0217 34.2785L26.041 34.4913C25.9825 34.4859 25.9232 34.4925 25.8673 34.5107C25.809 34.5299 25.7896 34.5688 25.7509 34.6075C25.7351 34.6508 25.7284 34.6969 25.7315 34.7429C25.7485 34.8292 25.7745 34.9137 25.8092 34.9947L26.1197 35.5944L25.905 35.6919ZM27.3991 34.7825C27.3701 34.8682 27.3239 34.9473 27.2633 35.0146C27.2076 35.0765 27.1421 35.1288 27.0693 35.1694C26.9664 35.237 26.842 35.2646 26.7201 35.2468C26.6674 35.2394 26.6173 35.2199 26.5735 35.1899C26.5297 35.1598 26.4936 35.12 26.4679 35.0736C26.4459 35.0182 26.4329 34.9598 26.4292 34.9003C26.4163 34.8482 26.4232 34.7931 26.4486 34.7456C26.4824 34.6965 26.5215 34.6511 26.5649 34.6102C26.6129 34.561 26.6647 34.5157 26.7201 34.4748C26.8333 34.4038 26.9377 34.3193 27.0306 34.2232C27.0286 34.2087 27.0218 34.195 27.0112 34.1846C26.9725 34.1072 26.9141 34.0489 26.856 34.0489C26.7614 34.0323 26.6639 34.0532 26.5844 34.1072C26.546 34.1191 26.5107 34.1392 26.4807 34.166C26.4507 34.1926 26.4268 34.2255 26.4106 34.2621C26.3911 34.3317 26.3911 34.4053 26.4106 34.475L26.1972 34.5526C26.1715 34.478 26.1649 34.3981 26.1778 34.3203C26.1856 34.2461 26.2202 34.1775 26.2749 34.1267C26.3462 34.0474 26.4317 33.9819 26.527 33.9335C26.6066 33.8908 26.6914 33.8583 26.7792 33.8366C26.8423 33.8167 26.9101 33.8167 26.9732 33.8366C27.0256 33.8574 27.0723 33.8906 27.109 33.9335C27.1565 33.9849 27.1958 34.0433 27.2253 34.1066L27.3805 34.3582C27.4495 34.4676 27.5273 34.5712 27.6134 34.6679C27.6326 34.7257 27.691 34.7451 27.7297 34.7839L27.5357 34.9001C27.4859 34.8664 27.4401 34.8274 27.3987 34.7839L27.3991 34.7825ZM27.1274 34.376C27.069 34.4342 26.9722 34.5114 26.8559 34.6082C26.8011 34.6497 26.7492 34.6949 26.7007 34.7436C26.686 34.7589 26.6749 34.7772 26.6682 34.7973C26.6616 34.8174 26.6594 34.8386 26.662 34.8597C26.6607 34.893 26.6673 34.9262 26.6814 34.9565C26.7124 35.0051 26.7611 35.0397 26.8172 35.0532C26.8917 35.0499 26.9645 35.0301 27.0306 34.9954C27.1009 34.9595 27.1607 34.9061 27.2044 34.8403C27.2412 34.7824 27.2615 34.7155 27.2626 34.6468C27.2431 34.5706 27.2102 34.4986 27.1655 34.434L27.1274 34.376ZM27.9618 34.6663L27.2243 33.5826L27.3981 33.4858L27.4952 33.6406C27.4973 33.5566 27.5219 33.4747 27.5661 33.4034C27.6105 33.3319 27.673 33.2735 27.7473 33.2341C27.8138 33.1969 27.8859 33.1707 27.9608 33.1566C28.0259 33.1438 28.0935 33.1505 28.1549 33.176C28.2084 33.1946 28.2555 33.2282 28.2906 33.2727C28.3487 33.3192 28.3953 33.3786 28.4264 33.4459L28.8919 34.0847L28.6979 34.2201L28.2512 33.5621C28.2102 33.5069 28.1649 33.4552 28.1155 33.4074C28.0663 33.3856 28.0138 33.3725 27.9603 33.3688C27.8906 33.3789 27.8249 33.4076 27.7704 33.4519C27.7157 33.4962 27.674 33.5543 27.6498 33.6202C27.6111 33.717 27.6498 33.8139 27.7469 33.9493L28.1544 34.5493L27.9618 34.6663ZM29.5529 33.0021L29.7471 32.8861C29.8187 33.0016 29.8463 33.1391 29.8247 33.2732C29.7936 33.3988 29.7177 33.5089 29.6113 33.5829C29.5509 33.6362 29.4798 33.6759 29.4027 33.6992C29.3256 33.7226 29.2444 33.7291 29.1645 33.7183C29.0711 33.7045 28.9814 33.6716 28.9014 33.6216C28.8213 33.5718 28.7523 33.5059 28.6989 33.4281C28.6138 33.3392 28.5479 33.2338 28.5048 33.1185C28.4822 33.0091 28.4888 32.8956 28.5242 32.7895C28.5713 32.6936 28.6374 32.608 28.7182 32.538C28.8261 32.4623 28.9549 32.4218 29.0868 32.4219C29.2069 32.422 29.3232 32.4631 29.4167 32.538L29.2615 32.6927C29.2021 32.6419 29.1263 32.6144 29.0481 32.6153C28.9789 32.6137 28.9109 32.6339 28.854 32.6732C28.8103 32.7033 28.775 32.7438 28.7512 32.7913C28.7275 32.8387 28.7162 32.8914 28.7182 32.9443C28.7173 33.0101 28.7308 33.0752 28.7576 33.1354C28.7843 33.1955 28.8238 33.249 28.8734 33.2926C28.9557 33.4029 29.0712 33.4844 29.2033 33.5247C29.2545 33.5328 29.3068 33.53 29.357 33.5167C29.4072 33.5033 29.454 33.4797 29.4944 33.4472C29.5622 33.4018 29.6106 33.3327 29.6301 33.2537C29.6286 33.1647 29.6016 33.0779 29.5525 33.0037L29.5529 33.0021ZM30.5814 32.2086L30.7755 32.0732C30.8116 32.1263 30.8367 32.1863 30.8495 32.2492C30.8623 32.3123 30.8623 32.3771 30.8497 32.4401C30.837 32.5031 30.8121 32.563 30.7759 32.6163C30.74 32.6695 30.6936 32.7151 30.6397 32.7504C30.5796 32.8129 30.5073 32.8623 30.4272 32.8956C30.3471 32.9289 30.2609 32.9455 30.1742 32.944C29.9906 32.9238 29.8196 32.8419 29.6891 32.7118C29.5585 32.5817 29.4764 32.4111 29.4561 32.2281C29.457 32.1475 29.4747 32.0681 29.5081 31.9948C29.5415 31.9214 29.5899 31.8559 29.6503 31.8024C29.7087 31.7453 29.7789 31.7017 29.8561 31.675C29.9334 31.6482 30.0156 31.6388 30.097 31.6475C30.1895 31.6509 30.2801 31.6734 30.3636 31.7133C30.447 31.7533 30.5214 31.8098 30.5819 31.8796L30.6206 31.9184L29.9027 32.5958C29.9945 32.6761 30.1105 32.7238 30.2324 32.7312C30.3381 32.7349 30.4414 32.7006 30.5235 32.6343C30.5524 32.6106 30.5758 32.5811 30.5925 32.5478C30.6092 32.5145 30.6188 32.478 30.6206 32.4407C30.633 32.3615 30.619 32.2805 30.5806 32.21L30.5814 32.2086ZM29.7663 32.4601L30.329 31.9569C30.2607 31.8905 30.1718 31.8495 30.0768 31.8407C30.024 31.8313 29.9698 31.8351 29.9189 31.8521C29.868 31.869 29.8223 31.8984 29.7857 31.9375C29.7482 31.9677 29.7182 32.006 29.698 32.0497C29.6778 32.0933 29.668 32.141 29.6693 32.189C29.6684 32.2885 29.7025 32.385 29.7659 32.4618L29.7663 32.4601ZM31.7844 31.6472L30.3487 30.5055L31.1637 29.5961L31.3374 29.7314L30.6777 30.4667L31.1244 30.8152L31.6872 30.1765L31.8608 30.3119L31.2981 30.9505L31.9386 31.4732L31.7844 31.6472ZM33.2785 29.8279L33.1233 29.7119C33.1532 29.7881 33.1636 29.8704 33.1533 29.9515C33.1432 30.0325 33.1128 30.1099 33.0651 30.1764C33.0171 30.2329 32.958 30.279 32.8913 30.3118C32.8405 30.3478 32.78 30.368 32.7176 30.3696C32.6507 30.3738 32.5837 30.3606 32.5235 30.331C32.4584 30.3139 32.3985 30.2806 32.3497 30.2342L31.6513 29.7886L31.7871 29.5951L32.4075 30.0015C32.4735 30.0545 32.545 30.0999 32.6211 30.1369C32.6709 30.1563 32.7263 30.1563 32.7761 30.1369C32.8392 30.1163 32.8938 30.0755 32.9313 30.0209C32.952 29.9972 32.9679 29.9697 32.9779 29.94C32.9879 29.9102 32.9919 29.8789 32.9896 29.8476C32.9953 29.7872 32.9817 29.7266 32.9509 29.6743C32.9002 29.6027 32.8338 29.5434 32.7567 29.501L32.1551 29.1139L32.2909 28.9406L33.3969 29.676L33.2785 29.8279ZM33.6083 29.4022L32.4247 28.7834L32.5217 28.6101L32.6955 28.6873C32.6527 28.6209 32.6298 28.5436 32.6298 28.4646C32.6298 28.3856 32.6527 28.3083 32.6955 28.2418C32.7313 28.1716 32.7849 28.1119 32.8507 28.0685C32.9046 28.0347 32.9632 28.0087 33.0244 27.991C33.0896 27.9887 33.1549 27.9951 33.2184 28.0104C33.2811 28.0466 33.3459 28.0789 33.4126 28.1071L34.1499 28.4942L34.0334 28.6879L33.3155 28.301C33.2184 28.2621 33.1603 28.243 33.1021 28.2234C33.0534 28.218 33.0047 28.2318 32.9663 28.2621C32.9182 28.2903 32.8782 28.3302 32.8498 28.3782C32.8074 28.4548 32.7937 28.544 32.8111 28.6299C32.8305 28.7074 32.9082 28.7847 33.0634 28.8621L33.7229 29.2107L33.6083 29.4022ZM34.7337 27.4669L34.5785 27.4091C34.6166 27.4665 34.6369 27.5338 34.6369 27.6026C34.6369 27.6715 34.6166 27.7387 34.5785 27.7962C34.5592 27.8442 34.5302 27.8878 34.4935 27.9244C34.4569 27.961 34.4132 27.9897 34.3651 28.0091C34.2711 28.0641 34.1633 28.0908 34.0546 28.0866C33.9261 28.0819 33.8002 28.0488 33.686 27.9897C33.5782 27.9349 33.4798 27.863 33.3949 27.7769C33.3161 27.7071 33.2674 27.6094 33.2591 27.5046C33.249 27.4548 33.249 27.4035 33.259 27.3537C33.269 27.3039 33.2888 27.2565 33.3175 27.2145C33.3465 27.1457 33.3933 27.0859 33.4533 27.0412C33.5114 27.0044 33.5785 26.9842 33.6473 26.9831L33.0457 26.6929L33.162 26.4994L34.8309 27.2928L34.7337 27.4669ZM33.8022 27.7962C33.9192 27.8646 34.0558 27.8918 34.1903 27.8737C34.3067 27.8351 34.3845 27.7964 34.4232 27.7004C34.4469 27.6627 34.4596 27.6191 34.4596 27.5745C34.4596 27.53 34.4469 27.4864 34.4232 27.4487C34.3683 27.3332 34.271 27.2431 34.1514 27.1972C34.0212 27.125 33.8731 27.0914 33.7245 27.1004C33.6758 27.1116 33.6298 27.1329 33.5899 27.1626C33.5498 27.1924 33.5164 27.2303 33.4917 27.2737C33.4724 27.3163 33.4625 27.3624 33.4625 27.4091C33.4625 27.4558 33.4724 27.5019 33.4917 27.5445C33.5582 27.6658 33.6693 27.7567 33.8017 27.7977L33.8022 27.7962Z" fill="#1F4A82"/>
</svg>
