<svg width="24" height="25" viewBox="0 0 24 25" fill="none" xmlns="http://www.w3.org/2000/svg">
<path d="M18.8364 0.317627H5.16364C2.30303 0.317627 0 2.61461 0 5.4677V19.1045C0 21.9576 2.30303 24.2546 5.16364 24.2546H18.8364C21.697 24.2546 24 21.9576 24 19.1045V5.4677C24 2.63879 21.6727 0.317627 18.8364 0.317627ZM5.21212 15.2359H4.55758V13.9545H3.10303V15.2359H2.44848V12.0927H3.10303V13.35H4.55758V12.0927H5.21212V15.2359ZM8.84848 13.8577C8.84848 14.7524 8.33939 15.2601 7.46667 15.2601C6.59394 15.2601 6.08485 14.7524 6.08485 13.8819V12.0927H6.73939V13.8577C6.73939 14.3897 7.00606 14.6556 7.46667 14.6556C7.92727 14.6556 8.19394 14.3897 8.19394 13.8819V12.0927H8.84848V13.8577ZM11.8788 15.2359L11.5879 14.5831H10.1333L10.1091 14.6315L9.84242 15.2359H9.18788L10.5939 12.0927H11.1515L11.1758 12.1169L12.5818 15.2359H11.8788ZM15.9758 15.2359H15.4424L14.7152 13.1807L13.9879 15.2359H13.4545L12.3394 12.0927H13.0182L13.7212 14.2446L14.4485 12.0927H14.9818L15.7091 14.2446L16.4121 12.0927H17.0909L15.9758 15.2359ZM11.9273 6.53157C9.38182 6.53157 7.15151 5.44353 5.81818 3.24326C5.45455 3.24326 5.16364 2.92893 5.16364 2.56625C5.16364 2.17939 5.47879 1.88925 5.84242 1.88925C6.2303 1.88925 6.52121 2.20357 6.52121 2.56625C6.52121 2.7355 6.44848 2.90476 6.35151 3.02565C7.68485 4.88741 9.69697 5.95128 11.9273 5.95128C14.1576 5.95128 16.1939 4.86324 17.5273 2.97729C17.4303 2.8564 17.3818 2.71133 17.3818 2.56625C17.3818 2.20357 17.697 1.88925 18.0606 1.88925C18.4242 1.88925 18.7394 2.17939 18.7394 2.56625C18.7394 2.92893 18.4242 3.24326 18.0606 3.24326H18.0364C16.7273 5.41935 14.4727 6.50739 11.9273 6.53157ZM20.0242 15.2359H17.6V12.0927H19.9515V12.673H18.2545V13.3258H19.4424V13.9061H18.2545V14.6798H20.0242V15.2359ZM21.4303 15.2359H20.8V12.0927H21.4303V15.2359Z" fill="#52575C"/>
<path d="M10.4242 13.9303L10.3758 14.0028H11.3697L11.3212 13.9303L10.8606 12.8906L10.4242 13.9303Z" fill="#52575C"/>
</svg>
