<svg width="24" height="25" viewBox="0 0 24 25" fill="none" xmlns="http://www.w3.org/2000/svg">
<path d="M21.4286 0.317627H2.57143C1.15179 0.317627 0 1.46639 0 2.8823V21.6899C0 23.1058 1.15179 24.2546 2.57143 24.2546H21.4286C22.8482 24.2546 24 23.1058 24 21.6899V2.8823C24 1.46639 22.8482 0.317627 21.4286 0.317627ZM6.80357 19.152C6.50893 19.6649 5.85 19.8359 5.34107 19.542C4.82679 19.2481 4.65536 18.5909 4.95 18.0834L5.71607 16.7636C6.57857 16.5018 7.28571 16.7048 7.8375 17.3727L6.80357 19.152ZM14.2446 16.2721H4.5C3.91071 16.2721 3.42857 15.7912 3.42857 15.2034C3.42857 14.6157 3.91071 14.1348 4.5 14.1348H7.23214L10.7357 8.08646L9.6375 6.19501C9.34286 5.68208 9.51964 5.03022 10.0286 4.73635C10.5429 4.44248 11.1964 4.6188 11.4911 5.1264L11.9679 5.94923L12.4446 5.1264C12.7393 4.61346 13.3982 4.44248 13.9071 4.73635C14.4214 5.03022 14.5929 5.68742 14.2982 6.19501L9.70179 14.1348H13.0286C14.1107 14.1348 14.7161 15.4011 14.2446 16.2721ZM19.5 16.2721H17.9464L18.9964 18.0834C19.2911 18.5963 19.1143 19.2481 18.6054 19.542C18.0911 19.8359 17.4375 19.6596 17.1429 19.152C15.3804 16.1118 14.0625 13.8249 13.1786 12.3075C12.2839 10.758 12.9214 9.20851 13.5589 8.68489C14.2607 9.89776 15.3107 11.7144 16.7143 14.1348H19.5C20.0893 14.1348 20.5714 14.6157 20.5714 15.2034C20.5714 15.7965 20.0893 16.2721 19.5 16.2721Z" fill="#52575C"/>
</svg>
