<svg width="27" height="16" viewBox="0 0 27 16" fill="none" xmlns="http://www.w3.org/2000/svg">
<path d="M19.6875 12.1562C20.2969 12.1562 20.8125 11.6875 20.8125 11.0312C20.8125 10.4219 20.2969 9.90625 19.6875 9.90625C19.0781 9.90625 18.5625 10.4219 18.5625 11.0312C18.5625 11.6875 19.0781 12.1562 19.6875 12.1562ZM7.26562 12.1562C7.875 12.1562 8.39062 11.6875 8.39062 11.0312C8.39062 10.4219 7.875 9.90625 7.26562 9.90625C6.65625 9.90625 6.14062 10.4219 6.14062 11.0312C6.14062 11.6875 6.65625 12.1562 7.26562 12.1562ZM20.1094 5.40625C23.9531 7.51562 26.5781 11.4062 27 16H0C0.375 11.4062 3 7.51562 6.84375 5.40625L4.59375 1.51562C4.54688 1.42188 4.54688 1.32812 4.54688 1.23438C4.54688 1 4.73438 0.765625 5.01562 0.765625C5.20312 0.765625 5.34375 0.90625 5.4375 1.04688L7.6875 4.98438C9.46875 4.1875 11.4375 3.76562 13.5 3.76562C15.5625 3.76562 17.4844 4.1875 19.2656 4.98438L21.5156 1.04688C21.6094 0.90625 21.75 0.765625 21.9375 0.765625C22.2188 0.765625 22.4062 1 22.4062 1.23438C22.4062 1.32812 22.4062 1.42188 22.3594 1.51562L20.1094 5.40625Z" fill="white"/>
</svg>
